<svg width="527" height="527" viewBox="0 0 527 527" fill="none" xmlns="http://www.w3.org/2000/svg">
<path d="M263.5 450.648C376.365 450.648 467.86 445.306 467.86 438.717C467.86 432.127 376.365 426.786 263.5 426.786C150.635 426.786 59.14 432.127 59.14 438.717C59.14 445.306 150.635 450.648 263.5 450.648Z" fill="#F5F5F5"/>
<path d="M441.9 264.649H83.8035V277.497H441.9V264.649Z" fill="#56618D"/>
<path opacity="0.3" d="M179.644 264.649H83.8035V277.497H179.644V264.649Z" fill="white"/>
<path d="M181.172 277.497H172.835L177.198 438.527H181.172H185.146L189.52 277.497H181.172Z" fill="#56618D"/>
<path opacity="0.3" d="M177.198 438.527H181.172V280.954L172.972 282.451L177.198 438.527Z" fill="white"/>
<path d="M102.154 277.497H93.8165L98.1801 438.527H102.154H106.127L110.491 277.497H102.154Z" fill="#56618D"/>
<path opacity="0.3" d="M98.1801 438.527H102.154V280.954L93.943 282.451L98.1801 438.527Z" fill="white"/>
<path d="M423.55 277.497H415.213L419.576 438.527H423.55H427.523L431.898 277.497H423.55Z" fill="#56618D"/>
<path opacity="0.3" d="M419.576 438.527H423.55V280.954L415.35 282.451L419.576 438.527Z" fill="white"/>
<path d="M344.531 277.497H336.194L340.558 438.527H344.531H348.505L352.869 277.497H344.531Z" fill="#56618D"/>
<path opacity="0.3" d="M340.558 438.527H344.532V280.954L336.331 282.451L340.558 438.527Z" fill="white"/>
<path d="M253.782 195.865H168.64C167.949 195.837 167.261 195.974 166.633 196.263C166.005 196.552 165.454 196.986 165.026 197.528C164.597 198.071 164.303 198.707 164.167 199.386C164.031 200.064 164.058 200.764 164.245 201.43L175.586 255.553C175.951 257.084 176.805 258.454 178.018 259.456C179.231 260.458 180.738 261.038 182.31 261.107H267.516C268.205 261.134 268.892 260.998 269.519 260.709C270.146 260.421 270.696 259.988 271.125 259.447C271.553 258.905 271.847 258.271 271.984 257.594C272.121 256.917 272.096 256.218 271.911 255.553L260.559 201.43C260.194 199.889 259.333 198.51 258.109 197.505C256.885 196.5 255.365 195.924 253.782 195.865Z" fill="#263238"/>
<path d="M183.048 258.019C181.986 257.947 180.974 257.542 180.156 256.86C179.338 256.179 178.757 255.257 178.495 254.225L167.154 200.102C167.057 199.744 167.041 199.368 167.109 199.003C167.176 198.639 167.325 198.294 167.544 197.994C167.771 197.737 168.052 197.535 168.368 197.402C168.684 197.269 169.025 197.208 169.367 197.224H254.573C255.635 197.296 256.647 197.702 257.465 198.383C258.282 199.065 258.864 199.987 259.126 201.019L270.467 255.142C270.564 255.5 270.579 255.875 270.512 256.24C270.444 256.605 270.296 256.95 270.077 257.25C269.851 257.508 269.57 257.712 269.254 257.845C268.938 257.978 268.596 258.038 268.254 258.019H183.048Z" fill="white"/>
<path opacity="0.4" d="M247.332 253.687L236.581 202.368C236.52 202.064 236.528 201.751 236.602 201.45C236.677 201.149 236.816 200.869 237.012 200.628C237.207 200.388 237.453 200.193 237.732 200.059C238.011 199.924 238.316 199.852 238.626 199.849H252.454C252.933 199.853 253.397 200.02 253.769 200.322C254.141 200.625 254.398 201.046 254.499 201.514L265.25 252.791C265.31 253.095 265.303 253.409 265.228 253.709C265.154 254.01 265.014 254.291 264.819 254.531C264.624 254.772 264.378 254.966 264.099 255.101C263.82 255.236 263.515 255.307 263.205 255.31H249.376C248.903 255.309 248.443 255.148 248.073 254.853C247.702 254.559 247.441 254.148 247.332 253.687Z" fill="#56618D"/>
<path d="M174.247 204.339L173.784 202.115H190.858L191.322 204.339H174.247Z" fill="#56618D"/>
<path d="M182.131 209.862L181.667 207.638H211.59L212.065 209.862H182.131Z" fill="#EBEBEB"/>
<path d="M183.712 215.374L183.238 213.15H216.787L217.25 215.374H183.712Z" fill="#EBEBEB"/>
<path d="M185.283 220.897L184.819 218.673H211.822L212.297 220.897H185.283Z" fill="#EBEBEB"/>
<path d="M179.443 229.846L178.969 227.622H189.773L190.236 229.846H179.443Z" fill="#56618D"/>
<path d="M187.317 235.358L186.853 233.134H200.007L200.481 235.358H187.317Z" fill="#EBEBEB"/>
<path d="M203.633 235.358L203.159 233.134H216.323L216.787 235.358H203.633Z" fill="#EBEBEB"/>
<path d="M188.898 240.881L188.434 238.657H232.913L233.377 240.881H188.898Z" fill="#EBEBEB"/>
<path d="M190.468 246.394L190.005 244.17H223.922L224.386 246.394H190.468Z" fill="#EBEBEB"/>
<path d="M293.56 260.781H181.457C178.4 260.781 176.419 262.52 177.061 264.649H300.285C299.652 262.52 296.617 260.781 293.56 260.781Z" fill="#263238"/>
<path opacity="0.1" d="M144.619 182.184L133.858 130.896C133.799 130.593 133.808 130.281 133.883 129.982C133.958 129.682 134.099 129.403 134.294 129.164C134.489 128.924 134.734 128.731 135.012 128.597C135.29 128.463 135.594 128.391 135.903 128.388H222.963C223.441 128.391 223.904 128.556 224.275 128.857C224.647 129.158 224.905 129.576 225.008 130.043L235.769 181.288C235.83 181.592 235.822 181.905 235.748 182.206C235.673 182.507 235.534 182.787 235.338 183.028C235.143 183.268 234.897 183.463 234.618 183.597C234.339 183.732 234.034 183.804 233.725 183.807H146.664C146.19 183.806 145.731 183.645 145.36 183.35C144.989 183.056 144.728 182.645 144.619 182.184Z" fill="#56618D"/>
<path d="M175.565 130.074H157.288L156.877 128.103H175.154L175.565 130.074Z" fill="#56618D"/>
<path opacity="0.4" d="M172.592 133.215H165.257L164.846 131.244H172.181L172.592 133.215Z" fill="#56618D"/>
<path opacity="0.4" d="M184.798 133.215H173.499L173.088 131.244H184.387L184.798 133.215Z" fill="#56618D"/>
<path opacity="0.4" d="M189.72 136.345H165.91L165.499 134.374H189.319L189.72 136.345Z" fill="#56618D"/>
<path opacity="0.4" d="M186.695 139.486H166.564L166.153 137.515H186.284L186.695 139.486Z" fill="#56618D"/>
<path opacity="0.4" d="M200.049 172.803H187.233L187.644 174.764H200.46L200.049 172.803Z" fill="#56618D"/>
<path d="M184.071 168.503H165.299L164.888 166.532H183.659L184.071 168.503Z" fill="#56618D"/>
<path opacity="0.4" d="M191.617 175.934H174.163L174.574 177.905H192.028L191.617 175.934Z" fill="#56618D"/>
<path opacity="0.4" d="M186.326 172.803H173.509L173.921 174.764H186.737L186.326 172.803Z" fill="#56618D"/>
<path opacity="0.4" d="M198.489 169.662H172.856L173.267 171.633H198.9L198.489 169.662Z" fill="#56618D"/>
<path d="M174.922 115.445H154.242L153.831 113.484H174.511L174.922 115.445Z" fill="#56618D"/>
<path opacity="0.4" d="M185.135 122.886H162.327L162.738 124.857H185.536L185.135 122.886Z" fill="#56618D"/>
<path opacity="0.4" d="M180.571 119.755H161.673L162.084 121.716H180.982L180.571 119.755Z" fill="#56618D"/>
<path opacity="0.4" d="M181.826 116.615H161.02L161.431 118.586H182.237L181.826 116.615Z" fill="#56618D"/>
<path d="M174.69 144.588H160.313L159.902 142.617H174.279L174.69 144.588Z" fill="#56618D"/>
<path opacity="0.4" d="M197.267 152.018H169.178L169.589 153.989H197.667L197.267 152.018Z" fill="#56618D"/>
<path opacity="0.4" d="M180.16 148.888H168.524L168.935 150.859H180.571L180.16 148.888Z" fill="#56618D"/>
<path opacity="0.4" d="M192.787 148.888H181.151L181.562 150.859H193.198L192.787 148.888Z" fill="#56618D"/>
<path opacity="0.4" d="M193.504 145.747H167.871L168.282 147.718H193.904L193.504 145.747Z" fill="#56618D"/>
<path opacity="0.4" d="M193.451 161.431H171.138L171.549 163.391H193.862L193.451 161.431Z" fill="#56618D"/>
<path opacity="0.4" d="M176.977 158.29H170.484L170.896 160.261H177.378L176.977 158.29Z" fill="#56618D"/>
<path opacity="0.4" d="M187.127 158.29H177.862L178.274 160.261H187.538L187.127 158.29Z" fill="#56618D"/>
<path opacity="0.4" d="M195.464 155.159H169.831L170.242 157.12H195.875L195.464 155.159Z" fill="#56618D"/>
<path opacity="0.4" d="M215.648 154.632H206.468L206.057 152.661H215.248L215.648 154.632Z" fill="#56618D"/>
<path opacity="0.4" d="M230.931 154.632H216.787L216.376 152.661H230.52L230.931 154.632Z" fill="#56618D"/>
<path opacity="0.4" d="M236.939 157.773H207.122L206.71 155.802H236.528L236.939 157.773Z" fill="#56618D"/>
<path opacity="0.4" d="M232.976 160.904H207.775L207.364 158.933H232.565L232.976 160.904Z" fill="#56618D"/>
<path opacity="0.4" d="M244.265 142.164H215.712L216.123 144.124H244.676L244.265 142.164Z" fill="#56618D"/>
<path opacity="0.4" d="M238.72 139.023H215.058L215.469 140.994H239.121L238.72 139.023Z" fill="#56618D"/>
<path d="M234.441 135.892H208.386L208.797 137.853H234.852L234.441 135.892Z" fill="#56618D"/>
<path opacity="0.4" d="M245.55 173.446H210.389L210.8 175.417H245.961L245.55 173.446Z" fill="#56618D"/>
<path opacity="0.4" d="M224.302 170.316H209.735L210.147 172.276H224.713L224.302 170.316Z" fill="#56618D"/>
<path opacity="0.4" d="M240.112 170.316H225.545L225.957 172.276H240.523L240.112 170.316Z" fill="#56618D"/>
<path opacity="0.4" d="M241.166 167.175H209.082L209.493 169.146H241.577L241.166 167.175Z" fill="#56618D"/>
<path opacity="0.4" d="M240.28 182.848H212.349L212.76 184.819H240.691L240.28 182.848Z" fill="#56618D"/>
<path opacity="0.4" d="M219.822 179.718H211.696L212.107 181.689H220.233L219.822 179.718Z" fill="#56618D"/>
<path opacity="0.4" d="M232.533 179.718H220.939L221.351 181.689H232.945L232.533 179.718Z" fill="#56618D"/>
<path opacity="0.4" d="M243.137 176.577H211.042L211.453 178.548H243.537L243.137 176.577Z" fill="#56618D"/>
<path opacity="0.4" d="M157.678 185.283H135.818L136.229 187.254H158.089L157.678 185.283Z" fill="#56618D"/>
<path opacity="0.4" d="M151.217 182.152H135.165L135.576 184.113H151.618L151.217 182.152Z" fill="#56618D"/>
<path opacity="0.4" d="M168.387 182.152H152.345L152.756 184.113H168.809L168.387 182.152Z" fill="#56618D"/>
<path opacity="0.4" d="M166.606 179.011H134.511L134.923 180.982H167.006L166.606 179.011Z" fill="#56618D"/>
<path d="M412.061 244.17H398.528L400.109 264.649H410.48L412.061 244.17Z" fill="#56618D"/>
<path opacity="0.4" d="M412.061 244.17H398.528L400.109 264.649H410.48L412.061 244.17Z" fill="white"/>
<path d="M117.131 229.951H136.588L129.948 264.649H110.491L117.131 229.951Z" fill="#263238"/>
<path d="M141.911 220.655H114.433L122.127 264.649H149.605L141.911 220.655Z" fill="#56618D"/>
<path d="M112.81 220.655H114.433L122.127 264.649H120.504L112.81 220.655Z" fill="#56618D"/>
<path opacity="0.3" d="M112.81 220.655H114.433L122.127 264.649H120.504L112.81 220.655Z" fill="black"/>
<path d="M126.079 259.937L120.029 225.356H137.969L144.008 259.937H126.079Z" fill="white"/>
<path opacity="0.6" d="M143.154 259.937L137.115 225.356H137.969L144.008 259.937H143.154Z" fill="#56618D"/>
<path d="M278.014 164.424C278.404 165.267 278.277 166.163 277.718 166.416C277.16 166.669 276.401 166.195 276.011 165.362C275.621 164.529 275.758 163.623 276.306 163.37C276.854 163.117 277.624 163.539 278.014 164.424Z" fill="#263238"/>
<path d="M278.351 166.089C278.351 166.089 278.688 171.844 277.655 175.175C279.763 175.881 282.04 174.121 282.04 174.121L278.351 166.089Z" fill="#FF5652"/>
<path d="M278.119 157.457C278.029 157.531 277.919 157.575 277.803 157.584C277.117 157.602 276.445 157.782 275.842 158.11C275.239 158.438 274.723 158.904 274.335 159.47C274.3 159.535 274.253 159.592 274.196 159.638C274.139 159.685 274.073 159.719 274.002 159.739C273.931 159.759 273.857 159.765 273.784 159.756C273.712 159.747 273.641 159.723 273.577 159.687C273.514 159.65 273.458 159.601 273.414 159.542C273.37 159.483 273.338 159.416 273.32 159.345C273.302 159.273 273.299 159.199 273.31 159.127C273.322 159.054 273.348 158.985 273.387 158.922C273.864 158.197 274.509 157.598 275.266 157.174C276.024 156.75 276.872 156.515 277.74 156.487C277.855 156.481 277.969 156.511 278.066 156.574C278.163 156.636 278.238 156.727 278.28 156.835C278.322 156.942 278.329 157.06 278.3 157.172C278.271 157.284 278.208 157.384 278.119 157.457Z" fill="#263238"/>
<path d="M309.054 163.117C312.311 174.395 315.947 183.143 320.384 188.139C320.384 188.139 320.469 197.003 305.365 201.219C288.754 205.857 295.12 195.19 295.12 195.19C303.552 190.5 302.751 183.417 296.406 180.719L309.054 163.117Z" fill="#BB5749"/>
<path d="M323.905 185.978C323.61 181.857 323.22 177.156 320.679 177.03C317.876 176.903 301.644 184.155 298.177 189.267C294.709 194.379 301.486 199.385 301.486 199.385L323.905 185.978Z" fill="#263238"/>
<path d="M290.683 249.798L276.664 249.334L276.917 261.076C276.917 261.076 289.144 259.811 289.681 256.596L290.683 249.798Z" fill="#BB5749"/>
<path d="M269.255 255.1L267.779 261.107L276.917 261.086L276.664 249.345L269.255 255.1Z" fill="#BB5749"/>
<path d="M346.945 201.008L346.65 204.023C346.555 204.992 346.429 205.941 346.302 206.9C346.06 208.808 345.754 210.716 345.427 212.613C344.795 216.418 343.973 220.202 343.024 224.007C342.06 227.884 340.892 231.709 339.525 235.464C338.798 237.392 338.039 239.321 337.132 241.282C336.219 243.338 335.162 245.328 333.97 247.237C333.686 247.732 333.328 248.291 332.98 248.755C332.632 249.218 332.295 249.809 331.926 250.293C331.557 250.778 331.167 251.347 330.682 251.843L329.997 252.623C329.752 252.91 329.491 253.185 329.217 253.445C327.104 255.514 324.628 257.175 321.913 258.346C317.747 260.133 313.326 261.253 308.811 261.666C306.756 261.908 304.722 262.003 302.73 262.056C300.738 262.109 298.746 262.056 296.785 261.951C294.825 261.845 292.886 261.677 290.957 261.445C289.028 261.213 287.152 260.907 285.107 260.496L285.444 249.482C292.174 248.305 298.827 246.721 305.365 244.739C306.819 244.266 308.247 243.717 309.644 243.095C310.833 242.593 311.97 241.975 313.038 241.25C313.659 240.876 314.186 240.364 314.577 239.753L314.882 239.269C315.024 239.061 315.154 238.847 315.272 238.626C315.423 238.384 315.56 238.134 315.684 237.877C315.821 237.603 315.968 237.35 316.105 237.045C317.343 234.341 318.362 231.543 319.151 228.676C320.015 225.577 320.827 222.352 321.481 219.011C322.134 215.669 322.766 212.297 323.346 208.892L324.147 203.77L324.874 198.784L346.945 201.008Z" fill="#314389"/>
<path opacity="0.2" d="M346.945 201.008L346.65 204.023C346.555 204.992 346.429 205.941 346.302 206.9C346.06 208.808 345.754 210.716 345.427 212.613C344.795 216.418 343.973 220.202 343.024 224.007C342.06 227.884 340.892 231.709 339.525 235.464C338.798 237.392 338.039 239.321 337.132 241.282C336.219 243.338 335.162 245.328 333.97 247.237C333.686 247.732 333.328 248.291 332.98 248.755C332.632 249.218 332.295 249.809 331.926 250.293C331.557 250.778 331.167 251.347 330.682 251.843L329.997 252.623C329.752 252.91 329.491 253.185 329.217 253.445C327.104 255.514 324.628 257.175 321.913 258.346C317.747 260.133 313.326 261.253 308.811 261.666C306.756 261.908 304.722 262.003 302.73 262.056C300.738 262.109 298.746 262.056 296.785 261.951C294.825 261.845 292.886 261.677 290.957 261.445C289.028 261.213 287.152 260.907 285.107 260.496L285.444 249.482C292.174 248.305 298.827 246.721 305.365 244.739C306.819 244.266 308.247 243.717 309.644 243.095C310.833 242.593 311.97 241.975 313.038 241.25C313.659 240.876 314.186 240.364 314.577 239.753L314.882 239.269C315.024 239.061 315.154 238.847 315.272 238.626C315.423 238.384 315.56 238.134 315.684 237.877C315.821 237.603 315.968 237.35 316.105 237.045C317.343 234.341 318.362 231.543 319.151 228.676C320.015 225.577 320.827 222.352 321.481 219.011C322.134 215.669 322.766 212.297 323.346 208.892L324.147 203.77L324.874 198.784L346.945 201.008Z" fill="black"/>
<path d="M284.706 215.016C289.933 237.549 292.874 260.551 293.486 283.674H355.198C355.535 276.053 354.249 233.082 348.041 202.041C347.49 199.23 346.383 196.557 344.784 194.179C343.185 191.802 341.128 189.768 338.732 188.197C336.336 186.626 333.65 185.549 330.833 185.031C328.015 184.512 325.122 184.562 322.324 185.177L322.029 185.251C314.324 187.001 303.267 189.825 296.733 192.302L296.469 192.408C292.099 194.107 288.496 197.338 286.331 201.497C284.167 205.657 283.59 210.462 284.706 215.016Z" fill="#314389"/>
<path opacity="0.2" d="M288.722 234.726C289.207 237.688 289.702 240.828 290.156 244.117C295.204 238.847 296.806 222.7 296.806 222.7L288.722 234.726Z" fill="black"/>
<path d="M237.456 250.567L223.448 249.26L222.984 260.991C225.299 261.63 227.745 261.624 230.056 260.971C232.368 260.319 234.456 259.047 236.096 257.292L237.456 250.567Z" fill="#BB5749"/>
<path d="M216.787 252.718L212.297 260.781L223.026 260.991L223.49 249.26L216.787 252.718Z" fill="#BB5749"/>
<path d="M307.863 209.609C306.893 211.453 306.029 213.087 305.059 214.774C304.09 216.46 303.162 218.104 302.161 219.738C300.179 223.026 298.124 226.252 295.953 229.445C291.593 235.985 286.764 242.199 281.502 248.038C278.685 251.181 275.622 254.096 272.343 256.754C271.932 257.102 271.447 257.44 270.994 257.808C270.541 258.177 270.14 258.472 269.466 258.862C268.791 259.252 268.222 259.642 267.611 259.98C266.999 260.317 266.367 260.623 265.745 260.897C263.42 261.906 260.987 262.645 258.493 263.099C254.132 263.835 249.687 263.934 245.297 263.395C243.241 263.159 241.2 262.807 239.184 262.341C238.179 262.109 237.189 261.845 236.212 261.55C235.158 261.255 234.304 260.928 233.176 260.496L234.916 249.619C241.535 248.723 248.691 247.574 253.624 245.34C254.719 244.89 255.75 244.298 256.691 243.579C257.07 243.319 257.423 243.022 257.745 242.694C257.819 242.599 258.146 242.315 258.388 242.083C258.63 241.851 258.915 241.63 259.179 241.355C261.435 239.12 263.547 236.744 265.503 234.241C269.746 228.767 273.71 223.082 277.381 217.208C279.278 214.225 281.123 211.19 282.967 208.144L285.687 203.57L288.311 199.069L307.863 209.609Z" fill="#314389"/>
<path d="M290.925 429.61H279.394L273.587 402.891H285.128L290.925 429.61Z" fill="#BB5749"/>
<path d="M278.751 427.144H291.716C291.941 427.152 292.158 427.232 292.334 427.373C292.511 427.513 292.637 427.706 292.696 427.924L294.972 438.19C295.027 438.439 295.024 438.698 294.964 438.946C294.904 439.194 294.788 439.425 294.626 439.622C294.463 439.819 294.258 439.976 294.026 440.082C293.794 440.188 293.541 440.241 293.286 440.235C288.764 440.161 286.562 439.897 280.859 439.897C277.35 439.897 272.849 440.256 268.011 440.256C263.173 440.256 262.53 435.471 264.512 435.038C273.408 433.089 273.998 430.411 276.875 427.85C277.391 427.39 278.06 427.138 278.751 427.144Z" fill="#263238"/>
<g opacity="0.2">
<path d="M285.139 402.902H273.587L276.812 417.7L288.132 416.678L285.139 402.902Z" fill="black"/>
</g>
<path d="M305.354 149.563C309.57 160.229 312.5 166.269 309.718 174.015C305.502 185.662 290.546 186.843 283.273 177.631C276.738 169.336 271.026 153.283 279.278 144.461C281.086 142.505 283.363 141.045 285.894 140.217C288.426 139.39 291.126 139.225 293.74 139.736C296.353 140.247 298.792 141.418 300.825 143.138C302.858 144.858 304.417 147.07 305.354 149.563Z" fill="#BB5749"/>
<path d="M285.096 165.541C283.368 167.86 282.04 169.62 282.04 169.62C282.04 169.62 278.488 160.798 279.848 156.751C278.119 153.325 274.63 158.374 273.313 151.702C271.995 145.03 277.697 137.863 279.848 136.377C280.069 137.155 280.169 137.962 280.143 138.77C285.953 134.055 293.337 131.723 300.801 132.245C300.177 133.173 299.78 134.235 299.642 135.344C299.642 135.344 312.153 137.452 314.998 144.535C313.992 144.055 312.93 143.701 311.836 143.481C314.13 146.769 315.039 150.828 314.366 154.78C313.458 160.544 312.986 166.368 312.954 172.203C313.07 175.196 304.859 180.919 299.852 174.806C294.846 168.693 285.096 165.541 285.096 165.541Z" fill="#263238"/>
<path d="M290.314 163.244C290.967 165.728 290.781 168.358 289.787 170.727C288.448 173.889 285.697 173.13 284.338 170.369C283.104 167.892 282.314 163.296 284.496 161.093C286.677 158.89 289.492 160.261 290.314 163.244Z" fill="#BB5749"/>
<path d="M311.984 283.631C311.984 283.631 258.399 303.067 256.828 328.774C253.919 376.13 273.281 413.621 273.281 413.621L291.03 411.724C291.03 411.724 287.869 396.483 285.518 353.585C282.556 299.673 374.054 354.85 355.209 283.631H311.984Z" fill="#314389"/>
<path opacity="0.5" d="M311.984 283.631C311.984 283.631 258.399 303.067 256.828 328.774C253.919 376.13 273.281 413.621 273.281 413.621L291.03 411.724C291.03 411.724 287.869 396.483 285.518 353.585C282.556 299.673 374.054 354.85 355.209 283.631H311.984Z" fill="white"/>
<path d="M268.369 407.086C268.285 407.086 271.194 414.97 271.194 414.97L293.328 412.799L292.222 405.632L268.369 407.086Z" fill="#314389"/>
<path d="M241.081 430.928H229.54L226.167 404.198H237.709L241.081 430.928Z" fill="#BB5749"/>
<path d="M229.456 427.133H242.104C242.332 427.131 242.554 427.207 242.733 427.349C242.911 427.491 243.035 427.69 243.084 427.913L245.382 438.169C245.449 438.42 245.457 438.683 245.404 438.938C245.352 439.193 245.241 439.432 245.081 439.636C244.92 439.841 244.714 440.005 244.479 440.116C244.244 440.227 243.987 440.282 243.727 440.277C239.184 440.203 232.607 439.95 226.863 439.961C220.181 439.961 218.905 440.33 211.053 440.34C206.31 440.34 204.992 435.565 206.974 435.07C215.996 433.089 218.884 432.867 226.673 428.05C227.495 427.488 228.46 427.17 229.456 427.133Z" fill="#263238"/>
<path opacity="0.2" d="M226.178 404.209L228.012 418.765L239.458 417.985L237.719 404.209H226.178Z" fill="black"/>
<path d="M293.486 283.631C293.486 283.631 205.688 291.42 206.637 335.52C207.617 381.39 224.755 412.325 224.755 412.325H241.893C241.893 412.325 238.647 388.525 239.226 343.372C239.395 329.849 266.736 325.38 293.423 323.799C316.485 322.429 338.07 309.286 347.029 287.963L348.874 283.631H293.486Z" fill="#314389"/>
<path opacity="0.5" d="M293.486 283.631C293.486 283.631 205.688 291.42 206.637 335.52C207.617 381.39 224.755 412.325 224.755 412.325H241.893C241.893 412.325 238.647 388.525 239.226 343.372C239.395 329.849 266.736 325.38 293.423 323.799C316.485 322.429 338.07 309.286 347.029 287.963L348.874 283.631H293.486Z" fill="white"/>
<path d="M220.739 407.719C220.665 407.719 223.68 415.645 223.68 415.645L244.38 414.159L243.168 406.992L220.739 407.719Z" fill="#314389"/>
<path d="M316.537 234.072L305.396 277.002C302.548 288 301.11 299.316 301.117 310.677V330.629C301.117 335.667 304.827 339.757 309.412 339.757H366.518C371.103 339.757 374.813 335.667 374.813 330.629V310.677C374.809 299.315 376.251 288 379.103 277.002L388.937 239.058C390.454 233.229 386.47 227.464 380.958 227.464H324.505C322.632 227.523 320.831 228.204 319.388 229.401C317.945 230.598 316.942 232.242 316.537 234.072Z" fill="#263238"/>
<path d="M245.508 318.972L247.374 329.617C248.365 335.214 253.287 339.757 258.378 339.757H321.86C326.951 339.757 330.292 335.214 329.301 329.617L327.436 318.972C326.308 312.595 320.711 307.431 314.914 307.431H254.014C248.175 307.431 244.391 312.595 245.508 318.972Z" fill="#263238"/>
<path d="M327.973 350.444H294.719L291.473 339.757H331.219L327.973 350.444Z" fill="#314389"/>
<path d="M317.286 350.444H305.407V429.927H317.286V350.444Z" fill="#314389"/>
<path opacity="0.7" d="M317.286 429.927H305.407V352.352L317.286 353.564V429.927Z" fill="white"/>
<path opacity="0.7" d="M314.387 429.927H311.552V352.974L314.387 353.269V429.927Z" fill="white"/>
<path d="M338.661 442.216H284.021C283.703 442.213 283.393 442.11 283.136 441.922C282.88 441.733 282.689 441.468 282.591 441.165C282.493 440.862 282.493 440.536 282.591 440.232C282.689 439.929 282.879 439.665 283.136 439.476L291.8 433.152C295.965 430.101 300.993 428.455 306.155 428.451H316.537C321.697 428.456 326.72 430.103 330.882 433.152L339.557 439.476C339.814 439.665 340.005 439.931 340.103 440.235C340.2 440.539 340.199 440.866 340.1 441.17C340.001 441.474 339.808 441.738 339.55 441.926C339.291 442.114 338.98 442.215 338.661 442.216Z" fill="#314389"/>
</svg>
