<svg width="330" height="339" viewBox="0 0 330 339" fill="none" xmlns="http://www.w3.org/2000/svg">
<path d="M-109.887 112.204V266.596C-109.887 267.331 -109.838 268.039 -109.715 268.701C-109.592 269.482 -109.373 270.218 -109.104 270.902C-108.688 271.981 -108.1 272.932 -107.39 273.714L-106.681 274.4C-105.604 275.355 -104.284 276.039 -102.792 276.382C-102.009 276.577 -101.152 276.675 -100.272 276.675C-99.0003 276.675 -97.6535 276.478 -96.2594 276.039L-96.0389 275.965C-95.9427 275.916 -95.8436 275.867 -95.7207 275.842L-88.4793 273.617L-88.3817 273.567L190.971 187.308L191.047 187.26C197.26 184.079 201.932 177.156 201.932 170.551V16.1601C201.932 13.2979 201.051 10.9004 199.534 9.18658H199.509C199.509 9.16142 199.509 9.16142 199.486 9.13774C198.555 8.0855 197.405 7.3026 196.085 6.78906C195.058 6.39835 193.906 6.15268 192.709 6.129C191.313 6.08017 189.845 6.27552 188.303 6.74023L-96.2609 94.3944C-103.795 96.6958 -109.887 104.695 -109.887 112.204Z" fill="#212B50"/>
<path d="M201.932 16.1599V170.552C201.932 173.928 200.708 177.403 198.679 180.387C199.193 178.797 199.487 177.157 199.487 175.544V21.1503C199.487 18.2881 198.605 15.8906 197.088 14.1783H197.063C197.063 14.1531 197.063 14.1531 197.039 14.1295C196.108 13.0772 194.96 12.2943 193.638 11.7808C192.611 11.3886 191.46 11.1444 190.261 11.1192C188.868 11.0704 187.4 11.2672 185.858 11.7319L-98.7073 99.3877C-102.867 100.659 -106.585 103.669 -109.08 107.362C-107.196 101.516 -102.181 96.2058 -96.2609 94.3958L188.303 6.74157C189.845 6.27687 191.312 6.08151 192.706 6.13035C193.906 6.15403 195.056 6.39971 196.083 6.79041C197.403 7.30395 198.553 8.08832 199.484 9.13908C199.508 9.16276 199.508 9.16276 199.508 9.18792H199.533C201.051 10.8987 201.932 13.2977 201.932 16.1599Z" fill="#56618D"/>
<path d="M42.1096 58.457C42.1096 60.6177 43.8618 61.8297 46.021 61.1638C48.1818 60.4978 49.934 58.2083 49.934 56.0461C49.934 53.8854 48.1818 52.6733 46.021 53.3393C43.8618 54.0053 42.1096 56.2962 42.1096 58.457Z" fill="#212B50"/>
<path d="M42.1096 58.457C42.1096 60.6177 43.8618 61.8297 46.021 61.1638C48.1818 60.4978 49.934 58.2083 49.934 56.0461C49.934 53.8854 48.1818 52.6733 46.021 53.3393C43.8618 54.0053 42.1096 56.2962 42.1096 58.457Z" stroke="white" stroke-miterlimit="10" stroke-linecap="round" stroke-linejoin="round"/>
<path d="M-109.887 112.204V266.596C-109.887 267.331 -109.838 268.039 -109.715 268.701C-109.592 269.482 -109.373 270.218 -109.104 270.902C-108.688 271.981 -108.1 272.932 -107.39 273.714L-106.681 274.4C-105.604 275.355 -104.284 276.039 -102.792 276.382C-102.009 276.577 -101.152 276.675 -100.272 276.675C-99.0003 276.675 -97.6535 276.478 -96.2594 276.039L-96.0389 275.965C-95.9427 275.916 -95.8436 275.867 -95.7207 275.842L-88.4793 273.617L-88.3817 273.567L190.971 187.308L191.047 187.26C197.26 184.079 201.932 177.156 201.932 170.551V16.1601C201.932 13.2979 201.051 10.9004 199.534 9.18658H199.509C199.509 9.16142 199.509 9.16142 199.486 9.13774C198.555 8.0855 197.405 7.3026 196.085 6.78906C195.058 6.39835 193.906 6.15268 192.709 6.129C191.313 6.08017 189.845 6.27552 188.303 6.74023L-96.2609 94.3944C-103.795 96.6958 -109.887 104.695 -109.887 112.204Z" stroke="#271A3D" stroke-miterlimit="10" stroke-linecap="round" stroke-linejoin="round"/>
<path d="M-89.1616 106.061L181.207 22.7873C188.732 20.4697 194.836 24.6919 194.836 32.219V165.845C194.836 173.372 188.732 181.355 181.207 183.672L-89.1616 266.946C-96.6901 269.263 -102.792 265.041 -102.792 257.516V123.89C-102.792 116.361 -96.6901 108.378 -89.1616 106.061Z" fill="#353535"/>
<path d="M-89.1616 106.061L181.207 22.7873C188.732 20.4697 194.836 24.6919 194.836 32.2189V165.845C194.836 173.372 188.732 181.355 181.207 183.672L-89.1616 266.946C-96.6901 269.263 -102.792 265.041 -102.792 257.516V123.89C-102.792 116.361 -96.6901 108.378 -89.1616 106.061Z" stroke="white" stroke-miterlimit="10" stroke-linecap="round" stroke-linejoin="round"/>
<path d="M123.714 67.063L178.439 50.2079C179.743 49.8054 180.633 48.6007 180.633 47.2347C180.633 45.1421 178.606 43.6473 176.607 44.263L121.882 61.1181C120.575 61.5206 119.685 62.7253 119.685 64.0913C119.688 66.1839 121.714 67.6787 123.714 67.063Z" fill="#212B50"/>
<path d="M123.714 79.4886L178.439 62.6335C179.743 62.2324 180.633 61.0262 180.633 59.6603C180.633 57.5661 178.606 56.0729 176.607 56.687L121.882 73.5436C120.575 73.9447 119.685 75.1509 119.685 76.5154C119.688 78.608 121.714 80.1057 123.714 79.4886Z" fill="#212B50"/>
<path d="M154.187 82.5283L178.441 75.059C179.745 74.6579 180.634 73.4518 180.634 72.0873C180.634 69.9931 178.608 68.4984 176.608 69.114L152.355 76.5833C151.05 76.9844 150.162 78.1906 150.162 79.5565C150.162 81.6492 152.185 83.1454 154.187 82.5283Z" fill="#56618D"/>
<path d="M154.187 94.9554L178.441 87.4861C179.745 87.0836 180.634 85.8789 180.634 84.5144C180.634 82.4203 178.608 80.9255 176.608 81.5412L152.355 89.0105C151.05 89.413 150.162 90.6177 150.162 91.9822C150.162 94.0748 152.185 95.571 154.187 94.9554Z" fill="#56618D"/>
<path d="M154.187 107.381L178.441 99.9118C179.745 99.5107 180.634 98.3046 180.634 96.9386C180.634 94.8459 178.608 93.3512 176.608 93.9668L152.355 101.436C151.05 101.837 150.162 103.043 150.162 104.409C150.162 106.5 152.185 107.997 154.187 107.381Z" fill="#56618D"/>
<path d="M123.714 91.9155L139.386 87.0879C140.692 86.6869 141.581 85.4807 141.581 84.1162C141.581 82.0236 139.557 80.5273 137.556 81.1444L121.883 85.972C120.576 86.3731 119.687 87.5793 119.687 88.9438C119.688 91.0349 121.714 92.5312 123.714 91.9155Z" fill="white"/>
<path d="M123.714 104.341L139.386 99.5136C140.692 99.1125 141.581 97.9064 141.581 96.5419C141.581 94.4492 139.557 92.953 137.556 93.5687L121.883 98.3963C120.576 98.7973 119.687 100.003 119.687 101.368C119.688 103.461 121.714 104.957 123.714 104.341Z" fill="white"/>
<path d="M154.187 144.658L178.441 137.189C179.745 136.788 180.634 135.582 180.634 134.217C180.634 132.123 178.608 130.628 176.608 131.244L152.355 138.713C151.05 139.114 150.162 140.32 150.162 141.686C150.162 143.777 152.185 145.274 154.187 144.658Z" fill="#56618D"/>
<path d="M154.187 157.083L178.441 149.614C179.745 149.212 180.634 148.005 180.634 146.642C180.634 144.548 178.608 143.054 176.608 143.669L152.355 151.139C151.05 151.54 150.162 152.747 150.162 154.11C150.162 156.204 152.185 157.699 154.187 157.083Z" fill="#56618D"/>
<path d="M154.187 169.509L178.441 162.04C179.745 161.639 180.634 160.433 180.634 159.067C180.634 156.974 178.608 155.479 176.608 156.095L152.355 163.564C151.05 163.965 150.162 165.173 150.162 166.536C150.162 168.63 152.185 170.126 154.187 169.509Z" fill="#56618D"/>
<path d="M123.714 154.044L139.386 149.216C140.692 148.815 141.581 147.609 141.581 146.244C141.581 144.152 139.557 142.655 137.556 143.273L121.883 148.1C120.576 148.501 119.687 149.707 119.687 151.072C119.688 153.165 121.714 154.659 123.714 154.044Z" fill="#212B50"/>
<path d="M123.714 166.469L139.386 161.642C140.692 161.241 141.581 160.036 141.581 158.67C141.581 156.576 139.557 155.081 137.556 155.697L121.883 160.524C120.576 160.925 119.687 162.132 119.687 163.496C119.688 165.59 121.714 167.086 123.714 166.469Z" fill="#212B50"/>
<path d="M123.714 129.191L178.439 112.336C179.743 111.933 180.633 110.727 180.633 109.363C180.633 107.27 178.606 105.775 176.607 106.391L121.882 123.246C120.575 123.649 119.685 124.855 119.685 126.219C119.688 128.312 121.714 129.808 123.714 129.191Z" fill="#212B50"/>
<path d="M123.714 141.618L178.439 124.763C179.743 124.362 180.633 123.156 180.633 121.79C180.633 119.697 178.606 118.201 176.607 118.816L121.882 135.673C120.575 136.074 119.685 137.28 119.685 138.645C119.688 140.737 121.714 142.234 123.714 141.618Z" fill="#212B50"/>
<path d="M23.4874 97.933L78.2144 81.0764C79.5182 80.6754 80.4076 79.4692 80.4076 78.1047C80.4076 76.0121 78.3816 74.5158 76.3807 75.133L21.6567 91.9881C20.3529 92.3906 19.462 93.5968 19.462 94.9613C19.4605 97.0539 21.4865 98.5502 23.4874 97.933Z" fill="#212B50"/>
<path d="M23.4874 110.359L78.2144 93.5035C79.5182 93.1024 80.4076 91.8962 80.4076 90.5303C80.4076 88.4376 78.3816 86.9429 76.3807 87.5585L21.6567 104.414C20.3529 104.815 19.462 106.021 19.462 107.387C19.4605 109.479 21.4865 110.976 23.4874 110.359Z" fill="#212B50"/>
<path d="M53.9595 113.4L78.2128 105.931C79.5167 105.53 80.4061 104.324 80.4061 102.959C80.4061 100.865 78.3801 99.3702 76.3792 99.9859L52.1273 107.455C50.8235 107.856 49.9326 109.062 49.9326 110.428C49.934 112.52 51.9601 114.016 53.9595 113.4Z" fill="#56618D"/>
<path d="M53.9595 125.826L78.2128 118.356C79.5167 117.955 80.4061 116.749 80.4061 115.384C80.4061 113.29 78.3801 111.796 76.3792 112.411L52.1273 119.881C50.8235 120.283 49.9326 121.489 49.9326 122.854C49.934 124.945 51.9601 126.441 53.9595 125.826Z" fill="#56618D"/>
<path d="M53.9595 138.251L78.2128 130.782C79.5167 130.381 80.4061 129.175 80.4061 127.81C80.4061 125.718 78.3801 124.221 76.3792 124.838L52.1273 132.308C50.8235 132.709 49.9326 133.915 49.9326 135.279C49.934 137.371 51.9601 138.867 53.9595 138.251Z" fill="#56618D"/>
<path d="M23.4874 122.784L39.1601 117.957C40.4654 117.556 41.3548 116.349 41.3548 114.983C41.3548 112.891 39.3302 111.396 37.3294 112.012L21.6567 116.838C20.3529 117.24 19.462 118.445 19.462 119.811C19.4605 121.905 21.4865 123.4 23.4874 122.784Z" fill="#212B50"/>
<path d="M23.4874 135.21L39.1601 130.382C40.4654 129.981 41.3548 128.775 41.3548 127.411C41.3548 125.317 39.3302 123.822 37.3294 124.438L21.6567 129.265C20.3529 129.666 19.462 130.872 19.462 132.237C19.4605 134.331 21.4865 135.827 23.4874 135.21Z" fill="#212B50"/>
<path d="M53.9595 175.528L78.2128 168.059C79.5167 167.658 80.4061 166.452 80.4061 165.087C80.4061 162.993 78.3801 161.498 76.3792 162.114L52.1273 169.583C50.8235 169.984 49.9326 171.19 49.9326 172.556C49.934 174.648 51.9601 176.144 53.9595 175.528Z" fill="#56618D"/>
<path d="M53.9595 187.954L78.2128 180.484C79.5167 180.083 80.4061 178.877 80.4061 177.513C80.4061 175.42 78.3801 173.924 76.3792 174.539L52.1273 182.009C50.8235 182.411 49.9326 183.616 49.9326 184.98C49.934 187.075 51.9601 188.569 53.9595 187.954Z" fill="#56618D"/>
<path d="M53.9595 200.379L78.2128 192.91C79.5167 192.509 80.4061 191.303 80.4061 189.938C80.4061 187.846 78.3801 186.349 76.3792 186.967L52.1273 194.436C50.8235 194.837 49.9326 196.043 49.9326 197.408C49.934 199.5 51.9601 200.996 53.9595 200.379Z" fill="#56618D"/>
<path d="M23.4874 184.914L39.1601 180.086C40.4654 179.685 41.3548 178.479 41.3548 177.115C41.3548 175.02 39.3302 173.526 37.3294 174.141L21.6567 178.969C20.3529 179.37 19.462 180.576 19.462 181.942C19.4605 184.035 21.4865 185.53 23.4874 184.914Z" fill="white"/>
<path d="M23.4874 197.34L39.1601 192.512C40.4654 192.111 41.3548 190.905 41.3548 189.54C41.3548 187.446 39.3302 185.951 37.3294 186.567L21.6567 191.395C20.3529 191.796 19.462 193.002 19.462 194.366C19.4605 196.46 21.4865 197.955 23.4874 197.34Z" fill="white"/>
<path d="M23.4874 160.063L78.2144 143.207C79.5182 142.805 80.4076 141.599 80.4076 140.234C80.4076 138.142 78.3816 136.647 76.3807 137.262L21.6567 154.118C20.3529 154.519 19.462 155.726 19.462 157.089C19.4605 159.183 21.4865 160.678 23.4874 160.063Z" fill="#212B50"/>
<path d="M23.4874 172.487L78.2144 155.632C79.5182 155.231 80.4076 154.025 80.4076 152.659C80.4076 150.566 78.3816 149.071 76.3807 149.687L21.6567 166.542C20.3529 166.943 19.462 168.149 19.462 169.515C19.4605 171.608 21.4865 173.104 23.4874 172.487Z" fill="#212B50"/>
<path d="M-100.761 282.963V292.602C-100.761 292.848 -100.736 293.092 -100.736 293.338C-100.565 294.976 -99.8321 296.614 -98.4365 297.862L18.5503 404.918C24.6921 410.567 33.3764 412.501 41.3503 410.055L48.6909 407.78L316.645 325.02L323.984 322.768C327.36 321.716 329.195 318.559 328.975 315.429L329 306.67C328.828 308.26 328.142 309.8 327.017 310.974C326.235 311.809 325.207 312.467 323.983 312.858L321.488 313.617L316.644 315.11L48.6894 397.871L41.3489 400.148C33.3734 402.593 24.6891 400.66 18.5488 395.01L-95.3064 290.817L-98.4379 287.953C-98.5608 287.856 -98.6584 287.76 -98.7561 287.635C-100.053 286.29 -100.689 284.627 -100.761 282.963Z" fill="#000122"/>
<path d="M-100.761 282.963V292.602C-100.761 292.848 -100.736 293.092 -100.736 293.338C-100.565 294.976 -99.8321 296.614 -98.4365 297.862L18.5503 404.918C24.6921 410.567 33.3764 412.501 41.3503 410.055L48.6909 407.78L316.645 325.02L323.984 322.768C327.36 321.716 329.195 318.559 328.975 315.429L329 306.67C328.828 308.26 328.142 309.8 327.017 310.974C326.235 311.809 325.207 312.467 323.983 312.858L321.488 313.617L316.644 315.11L48.6894 397.871L41.3489 400.148C33.3734 402.593 24.6891 400.66 18.5488 395.01L-95.3064 290.817L-98.4379 287.953C-98.5608 287.856 -98.6584 287.76 -98.7561 287.635C-100.053 286.29 -100.689 284.627 -100.761 282.963Z" stroke="white" stroke-miterlimit="10" stroke-linecap="round" stroke-linejoin="round"/>
<path d="M100.686 67.6473V185.988" stroke="#56618D" stroke-width="0.8457" stroke-miterlimit="10" stroke-linecap="round" stroke-linejoin="round"/>
<path d="M-115 107.116V261.507C-115 264.443 -114.094 266.864 -112.505 268.602V268.627L-107.39 273.715C-108.099 272.934 -108.687 271.98 -109.104 270.903C-109.373 270.219 -109.592 269.484 -109.715 268.702C-109.838 268.041 -109.887 267.332 -109.887 266.598V112.204C-109.887 104.693 -103.795 96.6943 -96.2609 94.3944L188.303 6.74024C189.845 6.27553 191.312 6.08018 192.709 6.12902C193.908 6.1527 195.057 6.39837 196.085 6.78907C197.405 7.30261 198.555 8.08699 199.485 9.13775L194.347 3.9757L194.053 3.68267C191.559 1.16232 187.619 0.281752 183.216 1.62702L-101.374 89.2812C-108.883 91.6062 -115 99.5817 -115 107.116Z" fill="#000122"/>
<path d="M-115 107.116V261.507C-115 264.443 -114.094 266.864 -112.505 268.602V268.627L-107.39 273.715C-108.099 272.934 -108.687 271.981 -109.104 270.903C-109.373 270.219 -109.592 269.484 -109.715 268.702C-109.838 268.041 -109.887 267.332 -109.887 266.598V112.204C-109.887 104.693 -103.795 96.6943 -96.2609 94.3944L188.303 6.74024C189.845 6.27553 191.312 6.08018 192.709 6.12902C193.908 6.1527 195.057 6.39837 196.085 6.78907C197.405 7.30261 198.555 8.08699 199.485 9.13775L194.347 3.9757L194.053 3.68267C191.559 1.16232 187.619 0.281752 183.216 1.62702L-101.374 89.2812C-108.883 91.6062 -115 99.5817 -115 107.116Z" stroke="white" stroke-miterlimit="10" stroke-linecap="round" stroke-linejoin="round"/>
<path d="M-100.761 282.963C-100.689 284.627 -100.053 286.29 -98.7561 287.635C-98.6585 287.76 -98.5608 287.854 -98.438 287.954L-95.3064 290.817L18.5488 395.01C24.6906 400.659 33.3749 402.593 41.3488 400.148L48.6894 397.871L316.644 315.111L321.488 313.617L323.983 312.858C325.207 312.466 326.235 311.807 327.017 310.974C328.142 309.801 328.828 308.26 329 306.67V306.278H328.988C329.046 304.298 328.35 302.287 326.699 300.749L202.789 187.359C200.905 185.646 198.287 185.06 195.84 185.793L191.047 187.261L190.971 187.31L-88.3817 273.568L-88.4794 273.619L-95.7208 275.843C-95.8436 275.868 -95.9428 275.917 -96.039 275.966C-99.1705 277.092 -100.884 280.027 -100.761 282.963Z" fill="#212B50"/>
<path d="M328.999 306.082V306.669C328.827 308.259 328.14 309.799 327.015 310.973C326.771 311.244 326.5 311.463 326.207 311.683V311.464C326.207 309.556 325.524 307.624 323.908 306.132L199.998 192.74C198.114 191.028 195.496 190.44 193.049 191.174L188.256 192.642L188.182 192.691L-91.1728 278.951L-91.2705 279L-98.5119 281.226C-98.6347 281.253 -98.7324 281.3 -98.8301 281.349C-99.539 281.594 -100.177 281.935 -100.738 282.376C-100.64 279.635 -98.9766 276.993 -96.0404 275.966C-95.9442 275.917 -95.845 275.868 -95.7222 275.843L-88.4823 273.619L-88.3846 273.569L190.968 187.31L191.044 187.261L195.837 185.793C198.284 185.059 200.902 185.645 202.786 187.359L326.696 300.749C328.312 302.241 328.999 304.175 328.999 306.082Z" fill="#56618D"/>
<path d="M-100.761 282.963C-100.689 284.627 -100.053 286.29 -98.7561 287.635C-98.6585 287.76 -98.5608 287.854 -98.438 287.954L-95.3064 290.817L18.5488 395.01C24.6906 400.659 33.3749 402.593 41.3488 400.148L48.6894 397.871L316.644 315.111L321.488 313.617L323.983 312.858C325.207 312.466 326.235 311.807 327.017 310.974C328.142 309.801 328.828 308.26 329 306.67V306.278H328.988C329.046 304.298 328.35 302.287 326.699 300.749L202.789 187.359C200.905 185.646 198.287 185.06 195.84 185.793L191.047 187.261L190.971 187.31L-88.3817 273.568L-88.4794 273.619L-95.7208 275.843C-95.8436 275.868 -95.9428 275.917 -96.039 275.966C-99.1705 277.092 -100.884 280.027 -100.761 282.963Z" stroke="white" stroke-miterlimit="10" stroke-linecap="round" stroke-linejoin="round"/>
<path d="M86.1054 326.407C86.1276 326.904 86.3171 327.402 86.7048 327.803C86.7344 327.838 86.7625 327.868 86.7995 327.897L87.7348 328.753L121.741 359.872C123.575 361.56 126.169 362.136 128.552 361.406L130.744 360.727L210.776 336.008L212.223 335.562L212.968 335.336C213.335 335.219 213.641 335.02 213.875 334.773C214.211 334.423 214.414 333.961 214.466 333.487V333.369H214.463C214.48 332.78 214.272 332.177 213.779 331.719L176.77 297.85C176.206 297.34 175.426 297.165 174.694 297.384L173.262 297.823L173.239 297.837L89.8023 323.601L89.7727 323.616L87.609 324.28C87.572 324.288 87.5424 324.304 87.5128 324.317C86.5805 324.653 86.0699 325.53 86.1054 326.407Z" fill="#353535"/>
<path d="M214.458 333.261V333.481C214.408 333.97 214.212 334.411 213.871 334.778C213.65 335.023 213.333 335.217 212.966 335.342L212.232 335.561L210.788 336L210.323 336.147L174.8 303.634C174.238 303.12 173.455 302.95 172.722 303.171L171.304 303.612L171.278 303.635L88.272 329.252L87.7348 328.762L86.8039 327.906C86.7551 327.881 86.7299 327.832 86.7063 327.809C86.3126 327.393 86.1187 326.904 86.0936 326.415C86.0699 325.534 86.5834 324.653 87.5128 324.31C87.538 324.31 87.5853 324.285 87.6105 324.285L89.7638 323.625L89.8112 323.6L173.233 297.84L173.259 297.815L174.704 297.375C175.436 297.155 176.196 297.348 176.758 297.862L213.773 331.72C214.238 332.161 214.458 332.724 214.458 333.261Z" fill="#000122"/>
<path d="M50.7909 239.925C50.7939 240.006 50.8249 240.086 50.8886 240.151C50.893 240.157 50.8975 240.162 50.9034 240.166L51.0558 240.307L56.5746 245.358C56.872 245.632 57.2938 245.723 57.6801 245.605L58.0367 245.495L71.0262 241.483L71.26 241.411L71.3829 241.375C71.4421 241.356 71.4924 241.325 71.5294 241.282C71.5856 241.227 71.6167 241.152 71.6256 241.073V241.054C71.6271 240.958 71.5945 240.86 71.5131 240.785L65.506 235.288C65.4142 235.204 65.2885 235.177 65.1686 235.211L64.9362 235.284L64.9318 235.287L51.3903 239.468L51.3858 239.471L51.0351 239.579C51.0292 239.579 51.0233 239.582 51.0188 239.585C50.8679 239.639 50.785 239.783 50.7909 239.925Z" fill="white"/>
<path d="M30.9375 246.01C30.9404 246.092 30.9715 246.172 31.0337 246.235C31.0381 246.243 31.0426 246.247 31.0485 246.252L31.2009 246.392L36.7211 251.443C37.0186 251.715 37.4403 251.809 37.8266 251.69L38.1833 251.581L51.1728 247.569L51.4081 247.496L51.528 247.461C51.5872 247.441 51.6375 247.41 51.6759 247.367C51.7307 247.311 51.7633 247.237 51.7721 247.159V247.139C51.7751 247.043 51.7396 246.946 51.6597 246.87L45.6526 241.374C45.5608 241.289 45.4335 241.263 45.3152 241.297L45.0828 241.369L45.0798 241.371L31.5383 245.553L31.5339 245.556L31.1831 245.662C31.1772 245.664 31.1728 245.667 31.1683 245.67C31.0144 245.726 30.9315 245.868 30.9375 246.01Z" fill="white"/>
<path d="M70.6459 233.839C70.6488 233.921 70.6784 234.001 70.7421 234.066C70.7465 234.072 70.7509 234.076 70.7569 234.081L70.9093 234.221L76.4295 239.272C76.7269 239.546 77.1473 239.639 77.535 239.521L77.8902 239.41L90.8782 235.398L91.1135 235.325L91.2349 235.29C91.2926 235.27 91.3429 235.239 91.3814 235.196C91.4376 235.142 91.4702 235.066 91.4791 234.988V234.969H91.4776C91.4805 234.872 91.4465 234.775 91.3681 234.699L85.361 229.203C85.2692 229.12 85.1434 229.092 85.0236 229.126L84.7912 229.198L84.7868 229.201L71.2452 233.382L71.2408 233.385L70.8886 233.493C70.8827 233.493 70.8782 233.496 70.8738 233.499C70.7228 233.554 70.6399 233.697 70.6459 233.839Z" fill="white"/>
<path d="M90.5008 227.752C90.5037 227.834 90.5334 227.914 90.597 227.979C90.6014 227.985 90.6058 227.989 90.6118 227.993L90.7642 228.134L96.2844 233.185C96.5819 233.459 97.0022 233.552 97.3884 233.434L97.7436 233.324L110.733 229.311L110.967 229.24L111.088 229.203C111.148 229.183 111.196 229.152 111.236 229.112C111.29 229.056 111.324 228.981 111.334 228.902V228.883H111.331C111.335 228.788 111.3 228.689 111.222 228.615L105.214 223.117C105.121 223.034 104.995 223.006 104.877 223.042L104.645 223.113L104.642 223.116L91.0987 227.296L91.0942 227.299L90.7435 227.407C90.7376 227.409 90.7331 227.41 90.7287 227.413C90.5763 227.468 90.4949 227.61 90.5008 227.752Z" fill="white"/>
<path d="M110.353 221.667C110.357 221.748 110.387 221.828 110.451 221.893C110.455 221.899 110.459 221.903 110.465 221.909L110.619 222.048L116.136 227.1C116.435 227.373 116.856 227.467 117.243 227.348L117.597 227.239L130.587 223.225L130.82 223.154L130.943 223.117C131.001 223.098 131.051 223.067 131.09 223.025C131.143 222.969 131.179 222.894 131.186 222.815V222.796H131.185C131.187 222.701 131.153 222.602 131.075 222.529L125.068 217.03C124.975 216.947 124.849 216.919 124.731 216.956L124.498 217.026L124.495 217.028L110.954 221.211L110.949 221.212L110.597 221.32C110.591 221.322 110.587 221.323 110.582 221.326C110.431 221.382 110.347 221.525 110.353 221.667Z" fill="white"/>
<path d="M130.206 215.581C130.211 215.663 130.242 215.743 130.304 215.808C130.308 215.814 130.313 215.82 130.319 215.824L130.471 215.963L135.99 221.014C136.287 221.288 136.709 221.381 137.097 221.263L137.452 221.153L150.44 217.141L150.675 217.069L150.797 217.032C150.855 217.012 150.905 216.981 150.943 216.94C150.998 216.884 151.032 216.808 151.04 216.73V216.71H151.038C151.041 216.616 151.007 216.517 150.928 216.444L144.921 210.945C144.828 210.863 144.704 210.834 144.584 210.871L144.35 210.94L144.347 210.943L130.806 215.125L130.801 215.127L130.45 215.235C130.445 215.236 130.44 215.238 130.436 215.241C130.285 215.296 130.2 215.439 130.206 215.581Z" fill="white"/>
<path d="M150.061 209.496C150.066 209.576 150.095 209.657 150.159 209.721C150.163 209.728 150.168 209.732 150.174 209.737L150.326 209.876L155.845 214.927C156.142 215.201 156.564 215.294 156.949 215.176L157.306 215.066L170.295 211.054L170.529 210.982L170.65 210.945C170.709 210.925 170.758 210.894 170.798 210.853C170.852 210.797 170.887 210.721 170.894 210.644V210.623H170.893C170.896 210.529 170.862 210.43 170.783 210.357L164.775 204.861C164.682 204.776 164.556 204.75 164.437 204.784L164.205 204.855L164.202 204.858L150.661 209.04L150.656 209.041L150.304 209.149C150.298 209.151 150.294 209.152 150.289 209.155C150.14 209.212 150.055 209.354 150.061 209.496Z" fill="white"/>
<path d="M169.915 203.41C169.919 203.49 169.949 203.572 170.012 203.635C170.017 203.641 170.021 203.645 170.027 203.651L170.181 203.789L175.698 208.84C175.996 209.115 176.418 209.207 176.804 209.089L177.159 208.979L190.149 204.969L190.382 204.895L190.505 204.859C190.563 204.84 190.613 204.807 190.652 204.767C190.706 204.711 190.739 204.636 190.748 204.559V204.539H190.746C190.749 204.443 190.715 204.347 190.637 204.272L184.63 198.775C184.537 198.692 184.412 198.664 184.292 198.7L184.06 198.771L184.057 198.772L170.516 202.954L170.511 202.956L170.159 203.064C170.153 203.065 170.149 203.068 170.144 203.07C169.993 203.125 169.909 203.267 169.915 203.41Z" fill="white"/>
<path d="M11.084 252.096C11.0869 252.177 11.118 252.257 11.1802 252.321C11.1846 252.327 11.1905 252.333 11.1965 252.337L11.3474 252.478L16.8661 257.527C17.1636 257.801 17.5839 257.894 17.9716 257.776L18.3268 257.666L31.3163 253.654L31.5501 253.582L31.67 253.546C31.7292 253.527 31.7795 253.496 31.818 253.453C31.8728 253.397 31.9068 253.321 31.9142 253.244V253.225C31.9172 253.129 31.8816 253.031 31.8017 252.956L25.7946 247.459C25.7029 247.375 25.5756 247.348 25.4572 247.382L25.2248 247.455L25.2204 247.456L11.6789 251.639L11.6745 251.641L11.3237 251.748C11.3178 251.75 11.3134 251.752 11.3089 251.754C11.1609 251.812 11.0766 251.955 11.084 252.096Z" fill="white"/>
<path d="M-8.76947 258.183C-8.76651 258.264 -8.73545 258.344 -8.6733 258.408C-8.66886 258.414 -8.6644 258.418 -8.65848 258.424L-8.50605 258.563L-2.98733 263.614C-2.68838 263.888 -2.26808 263.981 -1.88182 263.863L-1.52662 263.753L11.4629 259.741L11.6967 259.667L11.818 259.632C11.8772 259.612 11.9275 259.583 11.966 259.541C12.0208 259.485 12.0534 259.41 12.0608 259.333V259.314C12.0637 259.217 12.0297 259.12 11.9498 259.044L5.94266 253.548C5.8509 253.463 5.72511 253.437 5.60524 253.471L5.37289 253.543L5.36844 253.545L-8.17455 257.727L-8.17899 257.73L-8.52974 257.837C-8.53566 257.838 -8.54009 257.841 -8.54453 257.842C-8.69401 257.897 -8.77539 258.041 -8.76947 258.183Z" fill="white"/>
<path d="M63.1203 251.239C63.1248 251.32 63.1544 251.399 63.218 251.464C63.2225 251.47 63.2269 251.476 63.2328 251.48L63.3852 251.619L68.9054 256.669C69.2029 256.944 69.6232 257.037 70.011 256.919L70.3661 256.81L83.3556 252.797L83.5909 252.725L83.7123 252.689C83.77 252.67 83.8203 252.638 83.8588 252.596C83.915 252.538 83.9476 252.464 83.955 252.387V252.368H83.9535C83.9565 252.272 83.9224 252.174 83.844 252.099L77.8369 246.602C77.7437 246.518 77.6194 246.491 77.501 246.525L77.2671 246.598L77.2642 246.599L63.7227 250.78L63.7182 250.783L63.3675 250.89C63.3616 250.891 63.3571 250.894 63.3512 250.896C63.1973 250.955 63.1144 251.097 63.1203 251.239Z" fill="white"/>
<path d="M43.2654 257.326C43.2698 257.406 43.2994 257.486 43.3631 257.551C43.3675 257.557 43.3719 257.563 43.3778 257.567L43.5303 257.705L49.049 262.756C49.3465 263.031 49.7682 263.124 50.1545 263.006L50.5097 262.897L63.4992 258.884L63.7345 258.812L63.8544 258.775C63.9136 258.756 63.9639 258.725 64.0024 258.685C64.0571 258.627 64.0897 258.553 64.0986 258.476V258.457H64.0971C64.1 258.361 64.066 258.263 63.9861 258.187L57.979 252.691C57.8872 252.606 57.76 252.58 57.6416 252.614L57.4092 252.686L57.4063 252.688L43.8647 256.869L43.8603 256.872L43.5096 256.978C43.5037 256.98 43.4992 256.983 43.4933 256.984C43.3438 257.04 43.2594 257.182 43.2654 257.326Z" fill="white"/>
<path d="M82.9753 245.154C82.9782 245.235 83.0078 245.313 83.0715 245.378C83.0759 245.384 83.0803 245.39 83.0862 245.395L83.2387 245.534L88.7574 250.585C89.0563 250.859 89.4767 250.952 89.8629 250.835L90.2181 250.724L103.208 246.712L103.441 246.639L103.563 246.604C103.622 246.585 103.671 246.552 103.711 246.511C103.764 246.453 103.8 246.38 103.807 246.302V246.283H103.805C103.808 246.187 103.773 246.089 103.696 246.013L97.6874 240.517C97.5942 240.433 97.4699 240.406 97.3515 240.44L97.1191 240.512L97.1161 240.514L83.5747 244.695L83.5702 244.698L83.218 244.804C83.2121 244.806 83.2076 244.809 83.2032 244.812C83.0507 244.869 82.9694 245.01 82.9753 245.154Z" fill="white"/>
<path d="M102.827 239.068C102.832 239.149 102.861 239.228 102.925 239.294C102.929 239.3 102.934 239.305 102.94 239.309L103.092 239.448L108.611 244.499C108.91 244.774 109.33 244.866 109.718 244.749L110.072 244.638L123.061 240.626L123.295 240.554L123.418 240.518C123.476 240.499 123.526 240.466 123.564 240.425C123.619 240.369 123.653 240.295 123.661 240.216V240.197H123.659C123.662 240.101 123.628 240.003 123.549 239.928L117.542 234.431C117.449 234.348 117.325 234.32 117.203 234.354L116.971 234.427L116.968 234.43L103.427 238.609L103.422 238.612L103.071 238.72C103.064 238.72 103.06 238.723 103.055 238.727C102.906 238.782 102.821 238.924 102.827 239.068Z" fill="white"/>
<path d="M122.681 232.981C122.687 233.062 122.716 233.141 122.778 233.207C122.783 233.213 122.789 233.218 122.795 233.222L122.947 233.361L128.466 238.412C128.762 238.688 129.185 238.781 129.57 238.662L129.927 238.551L142.916 234.539L143.15 234.467L143.271 234.431C143.33 234.412 143.379 234.379 143.418 234.341C143.473 234.283 143.507 234.209 143.514 234.131V234.112C143.517 234.015 143.483 233.918 143.403 233.842L137.396 228.346C137.303 228.263 137.177 228.235 137.058 228.269L136.826 228.341L136.823 228.344L123.28 232.524L123.276 232.527L122.925 232.635C122.919 232.635 122.915 232.638 122.91 232.642C122.759 232.697 122.675 232.839 122.681 232.981Z" fill="white"/>
<path d="M142.536 226.895C142.54 226.977 142.57 227.055 142.633 227.122C142.638 227.128 142.642 227.132 142.648 227.137L142.801 227.277L148.319 232.327C148.617 232.602 149.039 232.695 149.425 232.577L149.78 232.466L162.77 228.454L163.003 228.381L163.125 228.346C163.184 228.326 163.233 228.294 163.273 228.255C163.326 228.198 163.36 228.124 163.369 228.045V228.026H163.367C163.37 227.931 163.335 227.832 163.258 227.757L157.249 222.26C157.159 222.177 157.032 222.149 156.913 222.185L156.681 222.256L156.678 222.259L143.137 226.439L143.132 226.441L142.78 226.55C142.774 226.55 142.77 226.553 142.765 226.556C142.614 226.611 142.53 226.752 142.536 226.895Z" fill="white"/>
<path d="M162.389 220.81C162.394 220.891 162.425 220.97 162.487 221.036C162.491 221.042 162.496 221.047 162.502 221.051L162.656 221.192L168.173 226.243C168.47 226.517 168.892 226.61 169.278 226.491L169.634 226.382L182.623 222.368L182.858 222.296L182.98 222.26C183.037 222.241 183.088 222.209 183.126 222.169C183.181 222.111 183.215 222.037 183.222 221.958V221.939H183.221C183.224 221.844 183.19 221.745 183.11 221.671L177.104 216.173C177.011 216.09 176.887 216.062 176.767 216.098L176.533 216.169L176.53 216.172L162.989 220.353L162.984 220.354L162.633 220.464C162.627 220.465 162.622 220.467 162.617 220.47C162.468 220.524 162.383 220.666 162.389 220.81Z" fill="white"/>
<path d="M182.244 214.724C182.249 214.806 182.278 214.884 182.342 214.951C182.346 214.957 182.351 214.961 182.357 214.967L182.508 215.106L188.026 220.157C188.324 220.431 188.746 220.524 189.13 220.406L189.487 220.296L202.476 216.284L202.71 216.21L202.832 216.175C202.891 216.156 202.94 216.123 202.978 216.084C203.033 216.027 203.067 215.953 203.074 215.874V215.857H203.073C203.076 215.76 203.043 215.663 202.962 215.587L196.956 210.089C196.863 210.006 196.739 209.978 196.619 210.014L196.386 210.085L196.384 210.088L182.841 214.27H182.836L182.485 214.38C182.479 214.381 182.475 214.383 182.469 214.385C182.321 214.439 182.238 214.582 182.244 214.724Z" fill="white"/>
<path d="M23.4119 263.412C23.4149 263.492 23.4459 263.571 23.5096 263.637C23.514 263.642 23.5185 263.648 23.5244 263.653L23.6753 263.79L29.1956 268.842C29.493 269.117 29.9148 269.21 30.3011 269.092L30.6577 268.982L43.6472 264.97L43.8825 264.896L44.0039 264.859C44.0631 264.838 44.1134 264.809 44.1519 264.769C44.2066 264.711 44.2392 264.637 44.2481 264.56V264.541C44.251 264.445 44.2155 264.347 44.1356 264.271L38.1285 258.775C38.0382 258.691 37.9109 258.664 37.7925 258.698L37.5602 258.771L37.5557 258.772L24.0143 262.953L24.0098 262.956L23.6591 263.062C23.6531 263.064 23.6487 263.067 23.6443 263.068C23.4889 263.126 23.406 263.268 23.4119 263.412Z" fill="white"/>
<path d="M3.55843 269.497C3.56139 269.577 3.59247 269.657 3.65463 269.722C3.66055 269.728 3.66499 269.732 3.67091 269.738L3.82334 269.876L9.34356 274.927C9.64103 275.201 10.0628 275.295 10.4491 275.177L10.8043 275.067L23.7937 271.055L24.0276 270.981L24.1489 270.946C24.2081 270.925 24.2584 270.894 24.2954 270.854C24.3502 270.796 24.3828 270.721 24.3916 270.645V270.626C24.3946 270.53 24.3605 270.432 24.2806 270.357L18.2735 264.86C18.1818 264.776 18.0545 264.749 17.9361 264.783L17.7038 264.854L17.7008 264.857L4.15781 269.038L4.15338 269.04L3.80264 269.148C3.79672 269.149 3.79226 269.152 3.78782 269.153C3.63539 269.211 3.55103 269.353 3.55843 269.497Z" fill="white"/>
<path d="M-16.2965 275.583C-16.2921 275.663 -16.2625 275.744 -16.1988 275.809C-16.1944 275.815 -16.19 275.82 -16.184 275.824L-16.0331 275.963L-10.5129 281.014C-10.2139 281.288 -9.79364 281.383 -9.40737 281.264L-9.05218 281.155L3.93732 277.143L4.17263 277.069L4.29249 277.032C4.35169 277.011 4.40202 276.98 4.4405 276.941C4.49525 276.884 4.52782 276.808 4.5367 276.733V276.71H4.53521C4.53816 276.616 4.50413 276.518 4.42421 276.444L-1.58289 270.948C-1.67465 270.863 -1.80192 270.837 -1.92032 270.871L-2.15267 270.942L-2.15562 270.945L-15.6971 275.125L-15.7016 275.127L-16.0523 275.235C-16.0582 275.236 -16.0642 275.238 -16.0686 275.241C-16.2195 275.297 -16.3024 275.439 -16.2965 275.583Z" fill="white"/>
<path d="M75.4483 262.553C75.4527 262.635 75.4823 262.715 75.546 262.78C75.5504 262.786 75.5549 262.792 75.5608 262.796L75.7117 262.934L81.2319 267.985C81.5294 268.26 81.9512 268.352 82.3375 268.233L82.6926 268.124L95.6821 264.112L95.9159 264.039L96.0373 264.002C96.0965 263.983 96.1453 263.953 96.1853 263.91C96.2386 263.854 96.2741 263.779 96.2815 263.702V263.682H96.28C96.283 263.586 96.2474 263.489 96.1705 263.415L90.1619 257.917C90.0716 257.834 89.9444 257.806 89.8245 257.841L89.5921 257.912L89.5892 257.914L76.0477 262.096L76.0432 262.099L75.691 262.205C75.6851 262.207 75.6807 262.21 75.6762 262.211C75.5267 262.269 75.4424 262.411 75.4483 262.553Z" fill="white"/>
<path d="M55.5948 268.639C55.5978 268.72 55.6289 268.8 55.6925 268.864C55.6969 268.871 55.7014 268.875 55.7073 268.881L55.8598 269.019L61.3785 274.07C61.6759 274.344 62.0977 274.437 62.484 274.319L62.8392 274.209L75.8301 270.197L76.064 270.125L76.1853 270.088C76.2445 270.068 76.2934 270.037 76.3318 269.996C76.3866 269.94 76.4206 269.864 76.428 269.787V269.768H76.4265C76.4295 269.672 76.3955 269.574 76.317 269.5L70.3099 264.002C70.2167 263.919 70.0924 263.891 69.9725 263.927L69.7387 263.996L69.7357 263.999L56.1942 268.181L56.1898 268.184L55.839 268.291C55.8331 268.292 55.8287 268.295 55.8227 268.297C55.6718 268.355 55.5889 268.497 55.5948 268.639Z" fill="white"/>
<path d="M95.3018 256.468C95.3062 256.549 95.3373 256.629 95.3995 256.694C95.4039 256.7 95.4084 256.706 95.4143 256.71L95.5667 256.848L101.085 261.899C101.383 262.174 101.805 262.267 102.191 262.148L102.546 262.038L115.536 258.026L115.771 257.955L115.892 257.916C115.95 257.899 116 257.868 116.039 257.825C116.094 257.768 116.128 257.693 116.135 257.616V257.597C116.138 257.501 116.104 257.403 116.024 257.329L110.017 251.831C109.924 251.748 109.798 251.72 109.679 251.755L109.446 251.826L109.443 251.828L95.9012 256.01L95.8967 256.013L95.546 256.12C95.5401 256.121 95.5342 256.124 95.5297 256.126C95.3802 256.183 95.2959 256.325 95.3018 256.468Z" fill="white"/>
<path d="M115.157 250.381C115.161 250.462 115.191 250.542 115.254 250.607C115.259 250.614 115.263 250.619 115.269 250.623L115.422 250.762L120.94 255.813C121.236 256.087 121.66 256.181 122.044 256.061L122.401 255.951L135.391 251.939L135.624 251.868L135.746 251.831C135.805 251.812 135.854 251.781 135.894 251.741C135.947 251.683 135.981 251.607 135.988 251.532V251.511H135.987C135.99 251.415 135.956 251.317 135.877 251.243L129.869 245.747C129.777 245.663 129.651 245.634 129.533 245.67L129.301 245.741L129.298 245.742L115.755 249.925L115.75 249.928L115.399 250.034C115.393 250.036 115.389 250.039 115.385 250.04C115.234 250.098 115.149 250.24 115.157 250.381Z" fill="white"/>
<path d="M135.01 244.295C135.015 244.377 135.044 244.456 135.108 244.522C135.112 244.529 135.117 244.533 135.123 244.538L135.277 244.677L140.794 249.728C141.091 250.003 141.513 250.095 141.899 249.975L142.255 249.866L155.244 245.855L155.478 245.782L155.599 245.745C155.658 245.726 155.707 245.695 155.747 245.655C155.8 245.599 155.836 245.524 155.843 245.447V245.426H155.842C155.845 245.33 155.811 245.233 155.732 245.158L149.724 239.661C149.634 239.577 149.506 239.549 149.386 239.584L149.154 239.656L149.151 239.657L135.61 243.839L135.604 243.842L135.253 243.95C135.247 243.95 135.243 243.953 135.237 243.956C135.089 244.011 135.004 244.153 135.01 244.295Z" fill="white"/>
<path d="M154.864 238.21C154.868 238.291 154.899 238.371 154.961 238.438C154.966 238.443 154.97 238.448 154.976 238.452L155.129 238.591L160.647 243.642C160.945 243.918 161.365 244.009 161.753 243.893L162.108 243.78L175.097 239.769L175.333 239.697L175.454 239.661C175.512 239.641 175.562 239.61 175.601 239.568C175.655 239.512 175.689 239.436 175.697 239.36V239.339C175.7 239.244 175.664 239.146 175.584 239.071L169.577 233.574C169.487 233.492 169.361 233.462 169.241 233.497L169.008 233.568L169.005 233.573L155.463 237.752L155.457 237.755L155.108 237.863C155.102 237.863 155.097 237.866 155.092 237.869C154.942 237.925 154.858 238.068 154.864 238.21Z" fill="white"/>
<path d="M174.719 232.124C174.723 232.204 174.753 232.284 174.816 232.35C174.821 232.356 174.825 232.361 174.831 232.365L174.984 232.504L180.502 237.555C180.8 237.831 181.22 237.924 181.606 237.805L181.963 237.693L194.952 233.682L195.186 233.61L195.308 233.574C195.367 233.553 195.416 233.522 195.456 233.484C195.509 233.426 195.543 233.351 195.552 233.274V233.253H195.55C195.553 233.158 195.518 233.061 195.438 232.985L189.431 227.489C189.339 227.406 189.215 227.378 189.095 227.412L188.862 227.484L188.859 227.487L175.317 231.667L175.311 231.669L174.961 231.778C174.955 231.779 174.951 231.781 174.945 231.783C174.796 231.84 174.713 231.982 174.719 232.124Z" fill="white"/>
<path d="M194.572 226.038C194.577 226.118 194.606 226.198 194.67 226.265C194.674 226.271 194.679 226.275 194.685 226.28L194.839 226.419L200.356 231.47C200.653 231.745 201.074 231.838 201.461 231.72L201.816 231.61L214.806 227.597L215.04 227.524L215.163 227.489C215.22 227.468 215.271 227.437 215.309 227.397C215.362 227.339 215.398 227.264 215.405 227.187V227.166C215.408 227.073 215.374 226.974 215.294 226.898L209.287 221.402C209.195 221.319 209.071 221.291 208.95 221.326L208.717 221.397L208.714 221.4L195.173 225.581L195.167 225.583L194.816 225.691C194.81 225.692 194.806 225.694 194.8 225.697C194.651 225.754 194.566 225.895 194.572 226.038Z" fill="white"/>
<path d="M35.7399 274.724C35.7428 274.807 35.7739 274.886 35.8375 274.951C35.842 274.957 35.8464 274.963 35.8523 274.968L36.0048 275.106L41.5235 280.157C41.8209 280.431 42.2427 280.524 42.629 280.406L42.9857 280.296L55.9737 276.284L56.209 276.212L56.3303 276.175C56.3895 276.155 56.4398 276.124 56.4768 276.083C56.5316 276.027 56.5642 275.951 56.573 275.873V275.855H56.5716C56.5745 275.759 56.5405 275.661 56.4606 275.587L50.4535 270.089C50.3632 270.006 50.2359 269.978 50.1175 270.014L49.8852 270.083L49.8822 270.086L36.3407 274.268L36.3363 274.27L35.9855 274.378C35.9796 274.379 35.9752 274.381 35.9707 274.384C35.8183 274.439 35.7339 274.582 35.7399 274.724Z" fill="white"/>
<path d="M15.8864 280.81C15.8908 280.891 15.9205 280.971 15.9841 281.036C15.9885 281.042 15.9945 281.047 16.0004 281.054L16.1528 281.192L21.6715 286.243C21.969 286.516 22.3908 286.61 22.777 286.491L23.1337 286.382L36.1232 282.37L36.357 282.297L36.4769 282.26C36.5376 282.241 36.5864 282.21 36.6249 282.17C36.6796 282.114 36.7122 282.038 36.7211 281.96V281.942C36.724 281.846 36.69 281.748 36.6101 281.674L30.6045 276.176C30.5127 276.092 30.3854 276.064 30.2671 276.101L30.0347 276.17L30.0317 276.173L16.4887 280.355L16.4843 280.357L16.1336 280.465C16.1276 280.466 16.1232 280.468 16.1188 280.471C15.9634 280.524 15.8805 280.668 15.8864 280.81Z" fill="white"/>
<path d="M-3.96708 286.895C-3.96412 286.977 -3.93305 287.057 -3.86941 287.122C-3.86497 287.128 -3.86052 287.132 -3.8546 287.138L-3.70366 287.277L1.81656 292.328C2.11402 292.602 2.5358 292.695 2.92207 292.577L3.27873 292.467L16.2682 288.454L16.502 288.383L16.6234 288.346C16.6826 288.326 16.7329 288.295 16.7714 288.254C16.8262 288.198 16.8587 288.122 16.8661 288.044V288.024C16.8706 287.93 16.835 287.831 16.7536 287.758L10.7465 282.259C10.6548 282.176 10.529 282.148 10.4091 282.185L10.1768 282.254L10.1723 282.257L-3.37066 286.439L-3.37511 286.441L-3.72586 286.549C-3.73178 286.55 -3.73621 286.552 -3.74065 286.555C-3.89012 286.611 -3.973 286.753 -3.96708 286.895Z" fill="white"/>
<path d="M87.7763 273.867C87.7807 273.949 87.8118 274.029 87.874 274.092C87.8784 274.098 87.8828 274.103 87.8887 274.109L88.0412 274.248L93.5599 279.299C93.8573 279.573 94.2791 279.666 94.6654 279.547L95.0221 279.438L108.01 275.426L108.245 275.352L108.367 275.316C108.424 275.297 108.475 275.266 108.513 275.224C108.568 275.168 108.602 275.093 108.609 275.016V274.996H108.608C108.611 274.9 108.577 274.803 108.498 274.727L102.491 269.231C102.398 269.146 102.274 269.12 102.155 269.154L101.922 269.225L101.919 269.228L88.3771 273.41L88.3727 273.411L88.0219 273.52C88.016 273.521 88.0116 273.524 88.0071 273.525C87.8547 273.582 87.7703 273.725 87.7763 273.867Z" fill="white"/>
<path d="M67.9228 279.953C67.9272 280.034 67.9568 280.114 68.0205 280.179C68.0249 280.185 68.0293 280.19 68.0352 280.194L68.1877 280.335L73.7064 285.386C74.0039 285.658 74.4257 285.753 74.8119 285.635L75.1671 285.525L88.1566 281.513L88.3904 281.439L88.5118 281.403C88.571 281.384 88.6198 281.352 88.6598 281.312C88.713 281.255 88.7486 281.18 88.756 281.103V281.082C88.7589 280.986 88.7234 280.888 88.645 280.814L82.6379 275.318C82.5447 275.233 82.4189 275.205 82.299 275.241L82.0666 275.312L82.0637 275.315L68.5222 279.496L68.5177 279.499L68.167 279.607C68.161 279.608 68.1566 279.61 68.1522 279.613C67.9997 279.667 67.9169 279.811 67.9228 279.953Z" fill="white"/>
<path d="M107.631 267.782C107.636 267.863 107.665 267.943 107.729 268.007C107.733 268.013 107.738 268.019 107.744 268.023L107.896 268.162L113.415 273.213C113.712 273.487 114.134 273.58 114.519 273.462L114.875 273.352L127.865 269.34L128.099 269.266L128.22 269.231C128.279 269.211 128.328 269.182 128.368 269.139C128.421 269.083 128.455 269.007 128.464 268.93V268.911H128.461C128.466 268.815 128.43 268.717 128.35 268.642L122.343 263.145C122.252 263.061 122.126 263.034 122.007 263.068L121.775 263.139L121.772 263.142L108.229 267.325L108.223 267.328L107.874 267.434C107.868 267.436 107.864 267.439 107.859 267.44C107.708 267.496 107.625 267.64 107.631 267.782Z" fill="white"/>
<path d="M127.485 261.696C127.489 261.778 127.519 261.858 127.582 261.921C127.587 261.927 127.591 261.933 127.597 261.938L127.75 262.077L133.268 267.128C133.566 267.401 133.986 267.495 134.374 267.376L134.729 267.267L147.718 263.255L147.952 263.182L148.075 263.145C148.133 263.126 148.183 263.096 148.222 263.053C148.275 262.997 148.31 262.922 148.318 262.845V262.825C148.321 262.729 148.285 262.632 148.207 262.556L142.198 257.06C142.108 256.975 141.981 256.949 141.861 256.983L141.629 257.055L141.626 257.057L128.084 261.239L128.078 261.242L127.727 261.349C127.721 261.35 127.717 261.353 127.711 261.354C127.563 261.411 127.479 261.554 127.485 261.696Z" fill="white"/>
<path d="M147.338 255.609C147.343 255.691 147.374 255.771 147.436 255.834C147.44 255.84 147.445 255.846 147.451 255.851L147.603 255.991L153.122 261.041C153.419 261.315 153.84 261.408 154.227 261.289L154.584 261.18L167.572 257.168L167.807 257.095L167.929 257.06C167.986 257.04 168.037 257.009 168.075 256.966C168.13 256.91 168.164 256.835 168.17 256.758V256.739C168.173 256.642 168.139 256.545 168.059 256.469L162.052 250.973C161.96 250.888 161.834 250.862 161.716 250.896L161.482 250.968L161.479 250.97L147.938 255.152L147.932 255.155L147.582 255.262C147.576 255.263 147.572 255.266 147.566 255.267C147.417 255.325 147.332 255.469 147.338 255.609Z" fill="white"/>
<path d="M167.193 249.524C167.198 249.605 167.227 249.685 167.289 249.749C167.295 249.755 167.3 249.761 167.306 249.765L167.458 249.906L172.977 254.957C173.274 255.229 173.695 255.322 174.081 255.204L174.437 255.094L187.427 251.082L187.661 251.011L187.782 250.974C187.841 250.955 187.89 250.924 187.93 250.881C187.983 250.825 188.019 250.749 188.026 250.672V250.655C188.029 250.56 187.994 250.461 187.915 250.385L181.907 244.889C181.816 244.804 181.689 244.778 181.571 244.812L181.338 244.884L181.335 244.886L167.794 249.068L167.788 249.071L167.437 249.178C167.431 249.179 167.427 249.182 167.421 249.185C167.272 249.24 167.187 249.382 167.193 249.524Z" fill="white"/>
<path d="M214.14 242.916L213.797 243.037C213.749 243.037 213.699 243.062 213.65 243.062L214.14 242.916Z" fill="white"/>
<path d="M48.0693 286.038C48.0737 286.12 48.1033 286.198 48.167 286.265C48.1714 286.271 48.1759 286.275 48.1818 286.28L48.3327 286.42L53.8529 291.47C54.1504 291.745 54.5707 291.838 54.9584 291.72L55.3136 291.61L68.3031 287.597L68.5384 287.524L68.6598 287.489C68.719 287.469 68.7678 287.437 68.8063 287.398C68.8611 287.341 68.8951 287.267 68.904 287.188V287.169H68.9025C68.9054 287.074 68.8714 286.975 68.793 286.901L62.7844 281.403C62.6941 281.32 62.5654 281.292 62.4485 281.328L62.2161 281.399L62.2131 281.402L48.6716 285.583L48.6672 285.584L48.3165 285.694C48.3105 285.695 48.3061 285.697 48.3016 285.699C48.1463 285.754 48.0634 285.896 48.0693 286.038Z" fill="white"/>
<path d="M28.2143 292.124C28.2173 292.205 28.2484 292.284 28.312 292.35C28.3165 292.356 28.3209 292.361 28.3283 292.365L28.4807 292.506L33.9994 297.555C34.2969 297.831 34.7172 297.924 35.105 297.805L35.4602 297.696L48.4496 293.682L48.685 293.61L48.8063 293.574C48.8655 293.555 48.9158 293.523 48.9528 293.483C49.0076 293.425 49.0416 293.351 49.049 293.272V293.253H49.0475C49.0505 293.158 49.0165 293.059 48.9365 292.984L42.9295 287.487C42.8377 287.404 42.7119 287.376 42.592 287.412L42.3597 287.483L42.3552 287.486L28.8137 291.667L28.8093 291.668L28.4585 291.776C28.4526 291.779 28.4482 291.781 28.4437 291.784C28.2928 291.84 28.2084 291.982 28.2143 292.124Z" fill="white"/>
<path d="M8.36086 298.211C8.36382 298.292 8.39489 298.371 8.45853 298.437C8.46297 298.443 8.4674 298.448 8.47332 298.452L8.62577 298.593L14.1445 303.642C14.4419 303.918 14.8637 304.011 15.25 303.893L15.6067 303.782L28.5961 299.769L28.8315 299.697L28.9528 299.661C29.012 299.642 29.0623 299.61 29.0993 299.571C29.1541 299.513 29.1867 299.439 29.1955 299.361V299.342C29.1985 299.247 29.1644 299.148 29.0845 299.072L23.0774 293.576C22.9857 293.493 22.8599 293.465 22.74 293.499L22.5076 293.571L22.5047 293.574L8.96171 297.754L8.95728 297.757L8.60653 297.865C8.60061 297.866 8.59616 297.869 8.59172 297.872C8.43781 297.925 8.35494 298.067 8.36086 298.211Z" fill="white"/>
<path d="M-11.4926 304.296C-11.4896 304.378 -11.4585 304.456 -11.3949 304.523C-11.3905 304.529 -11.386 304.533 -11.3801 304.538L-11.2291 304.677L-5.70896 309.728C-5.41149 310.003 -4.98971 310.095 -4.60345 309.978L-4.24676 309.867L8.74271 305.855L8.97802 305.782L9.09791 305.747C9.1571 305.728 9.20741 305.695 9.24589 305.654C9.30065 305.597 9.33321 305.523 9.34209 305.445V305.426C9.34505 305.329 9.31101 305.232 9.2311 305.156L3.22399 299.66C3.13371 299.577 3.00645 299.549 2.88806 299.583L2.65569 299.655L2.65273 299.658L-10.8888 303.838L-10.8947 303.841L-11.244 303.949C-11.2499 303.949 -11.2558 303.952 -11.2602 303.955C-11.4156 304.011 -11.4985 304.153 -11.4926 304.296Z" fill="white"/>
<path d="M100.106 285.181C100.11 285.261 100.14 285.341 100.203 285.408C100.208 285.414 100.212 285.418 100.218 285.423L100.371 285.562L105.889 290.613C106.187 290.888 106.608 290.981 106.995 290.863L107.35 290.753L120.339 286.741L120.573 286.667L120.695 286.632C120.754 286.611 120.803 286.58 120.843 286.542C120.896 286.484 120.931 286.408 120.937 286.331V286.311C120.94 286.216 120.905 286.118 120.825 286.044L114.818 280.546C114.727 280.463 114.602 280.435 114.482 280.471L114.249 280.542L114.246 280.545L100.705 284.726L100.698 284.727L100.348 284.835C100.342 284.837 100.338 284.838 100.332 284.841C100.183 284.897 100.1 285.038 100.106 285.181Z" fill="white"/>
<path d="M80.2508 291.267C80.2552 291.347 80.2863 291.427 80.3484 291.494C80.3529 291.499 80.3573 291.504 80.3632 291.508L80.5172 291.647L86.0344 296.698C86.3319 296.974 86.7537 297.067 87.1399 296.949L87.4966 296.838L100.485 292.826L100.72 292.753L100.841 292.717C100.899 292.697 100.949 292.666 100.988 292.626C101.043 292.568 101.077 292.493 101.084 292.416V292.395H101.082C101.085 292.3 101.051 292.202 100.973 292.127L94.9644 286.63C94.8726 286.548 94.7468 286.519 94.6284 286.555L94.3946 286.626L94.3917 286.629L80.8502 290.81L80.8442 290.811L80.4949 290.919C80.489 290.921 80.4846 290.922 80.4787 290.925C80.3292 290.983 80.2449 291.125 80.2508 291.267Z" fill="white"/>
<path d="M119.959 279.096C119.964 279.177 119.993 279.256 120.057 279.322C120.061 279.328 120.066 279.333 120.072 279.337L120.224 279.476L125.743 284.527C126.04 284.801 126.461 284.896 126.848 284.778L127.203 284.668L140.193 280.656L140.427 280.582L140.55 280.546C140.607 280.526 140.658 280.495 140.696 280.455C140.751 280.397 140.785 280.321 140.791 280.245V280.225C140.794 280.129 140.761 280.031 140.68 279.957L134.673 274.461C134.581 274.376 134.455 274.348 134.335 274.384L134.103 274.455L134.1 274.458L120.559 278.639L120.553 278.64L120.202 278.748C120.196 278.75 120.191 278.751 120.186 278.754C120.038 278.81 119.953 278.953 119.959 279.096Z" fill="white"/>
<path d="M139.813 273.01C139.817 273.09 139.848 273.17 139.91 273.235C139.915 273.241 139.921 273.246 139.927 273.252L140.079 273.389L145.598 278.44C145.894 278.716 146.314 278.809 146.702 278.69L147.058 278.581L160.048 274.569L160.282 274.495L160.403 274.459C160.462 274.439 160.511 274.408 160.55 274.368C160.604 274.31 160.638 274.236 160.644 274.159V274.14C160.647 274.043 160.613 273.946 160.533 273.87L154.526 268.374C154.436 268.289 154.309 268.263 154.19 268.297L153.958 268.368L153.955 268.371L140.412 272.552L140.406 272.553L140.057 272.661C140.051 272.663 140.046 272.666 140.041 272.667C139.891 272.725 139.807 272.867 139.813 273.01Z" fill="white"/>
<path d="M159.668 266.925C159.672 267.005 159.702 267.085 159.764 267.15C159.77 267.156 159.774 267.16 159.78 267.166L159.933 267.304L165.451 272.355C165.749 272.63 166.169 272.723 166.557 272.605L166.912 272.495L179.901 268.483L180.135 268.409L180.257 268.374C180.316 268.355 180.365 268.323 180.405 268.282C180.458 268.224 180.493 268.15 180.501 268.073V268.054C180.504 267.958 180.468 267.86 180.39 267.785L174.381 262.288C174.292 262.204 174.164 262.177 174.045 262.211L173.813 262.284L173.81 262.285L160.268 266.466L160.263 266.469L159.912 266.576C159.906 266.577 159.901 266.58 159.895 266.582C159.746 266.639 159.662 266.781 159.668 266.925Z" fill="white"/>
<path d="M199.376 254.752C199.379 254.834 199.41 254.912 199.472 254.977C199.48 254.983 199.484 254.989 199.49 254.994L199.641 255.133L205.161 260.182C205.459 260.456 205.879 260.551 206.265 260.432L206.622 260.323L219.611 256.311L219.845 256.238L219.965 256.203C220.026 256.183 220.075 256.151 220.113 256.109C220.168 256.052 220.202 255.978 220.208 255.901V255.882C220.211 255.785 220.178 255.688 220.097 255.612L214.09 250.116C213.999 250.031 213.872 250.005 213.752 250.039L213.521 250.111L213.517 250.113L199.974 254.294L199.969 254.296L199.62 254.403C199.614 254.405 199.608 254.407 199.604 254.409C199.453 254.468 199.37 254.61 199.376 254.752Z" fill="white"/>
<path d="M60.3973 297.351C60.4002 297.432 60.4313 297.512 60.4935 297.579C60.4979 297.585 60.5023 297.589 60.5083 297.594L60.6607 297.733L66.1809 302.784C66.4784 303.059 66.8987 303.152 67.2864 303.034L67.6416 302.922L80.6311 298.911L80.8649 298.838L80.9877 298.803C81.0455 298.782 81.0958 298.751 81.1343 298.711C81.1875 298.653 81.2231 298.578 81.2305 298.501V298.48H81.229C81.2319 298.387 81.1979 298.288 81.1195 298.212L75.1109 292.716C75.0191 292.633 74.8919 292.603 74.7735 292.639L74.5411 292.711L74.5381 292.714L60.9952 296.894L60.9907 296.897L60.64 297.005C60.6341 297.006 60.6296 297.008 60.6237 297.011C60.4757 297.068 60.3928 297.21 60.3973 297.351Z" fill="white"/>
<path d="M40.5438 303.438C40.5467 303.52 40.5778 303.6 40.64 303.666C40.6444 303.672 40.6488 303.676 40.6562 303.681L40.8087 303.82L46.3289 308.871C46.6264 309.146 47.0467 309.24 47.4344 309.12L47.7896 309.009L60.7791 304.998L61.0144 304.926L61.1357 304.889C61.1949 304.869 61.2438 304.838 61.2823 304.797C61.337 304.741 61.371 304.665 61.3784 304.588V304.567C61.3799 304.473 61.3474 304.375 61.2675 304.3L55.2604 298.803C55.1701 298.72 55.0428 298.691 54.9244 298.726L54.6906 298.799L54.6876 298.802L41.1461 302.981L41.1417 302.984L40.7909 303.092C40.785 303.092 40.7806 303.095 40.7761 303.098C40.6207 303.154 40.5379 303.296 40.5438 303.438Z" fill="white"/>
<path d="M20.6903 309.524C20.6947 309.605 20.7243 309.685 20.788 309.751C20.7924 309.757 20.7983 309.762 20.8042 309.766L20.9552 309.905L26.4754 314.956C26.7729 315.23 27.1932 315.323 27.5809 315.205L27.9361 315.094L40.9256 311.083L41.1609 311.011L41.2823 310.974C41.3415 310.955 41.3918 310.924 41.4288 310.884C41.4835 310.827 41.5176 310.752 41.525 310.675V310.654C41.5265 310.56 41.4939 310.46 41.414 310.386L35.4069 304.89C35.3151 304.805 35.1879 304.777 35.0695 304.813L34.8371 304.884L34.8342 304.887L21.2912 309.068L21.2867 309.071L20.936 309.179C20.9301 309.179 20.9256 309.182 20.9212 309.185C20.7673 309.241 20.6829 309.381 20.6903 309.524Z" fill="white"/>
<path d="M21.6804 316.747C21.6552 316.845 21.6315 316.919 21.5827 316.968C21.5338 317.017 21.485 317.04 21.4362 317.064L21.3133 317.091L21.0691 317.163L-11.762 327.267L-12.129 327.364C-12.5212 327.486 -12.9371 327.39 -13.2316 327.12L-18.7591 322.081L-18.9071 321.933C-18.9071 321.933 -18.9072 321.933 -18.9308 321.933C-18.9797 321.859 -19.0048 321.785 -19.0285 321.689C-19.0285 321.542 -18.9308 321.419 -18.7828 321.347L-18.4158 321.249L14.9777 310.974L15.2219 310.902C15.3432 310.853 15.4661 310.902 15.5386 310.974L21.5561 316.481C21.6315 316.553 21.6804 316.651 21.6804 316.747Z" fill="white"/>
<path d="M152.142 284.323C152.147 284.405 152.176 284.485 152.238 284.55C152.244 284.556 152.249 284.562 152.255 284.566L152.406 284.705L157.926 289.756C158.223 290.031 158.643 290.123 159.031 290.005L159.386 289.895L172.376 285.883L172.61 285.811L172.73 285.774C172.79 285.754 172.839 285.723 172.879 285.683C172.932 285.627 172.968 285.552 172.974 285.473V285.454C172.977 285.358 172.943 285.26 172.863 285.188L166.856 279.69C166.765 279.607 166.637 279.577 166.52 279.614L166.287 279.684L166.283 279.687L152.741 283.869L152.737 283.87L152.386 283.978C152.38 283.98 152.376 283.981 152.37 283.984C152.221 284.038 152.136 284.181 152.142 284.323Z" fill="white"/>
<path d="M171.996 278.239C172 278.319 172.03 278.4 172.092 278.466C172.098 278.472 172.102 278.476 172.108 278.482L172.259 278.62L177.779 283.671C178.077 283.946 178.497 284.039 178.885 283.919L179.24 283.81L192.229 279.798L192.465 279.725L192.585 279.688C192.644 279.669 192.694 279.638 192.733 279.598C192.787 279.541 192.821 279.466 192.827 279.388V279.37C192.83 279.274 192.798 279.176 192.716 279.102L186.709 273.604C186.619 273.521 186.492 273.493 186.372 273.528L186.139 273.598L186.135 273.601L172.593 277.783L172.589 277.785L172.24 277.893C172.234 277.894 172.228 277.896 172.223 277.899C172.074 277.954 171.99 278.096 171.996 278.239Z" fill="white"/>
<path d="M191.85 272.152C191.853 272.234 191.883 272.313 191.948 272.379C191.954 272.385 191.958 272.389 191.964 272.395L192.115 272.533L197.636 277.584C197.933 277.859 198.353 277.952 198.74 277.832L199.096 277.723L212.086 273.711L212.32 273.638L212.439 273.601C212.5 273.582 212.549 273.552 212.587 273.511C212.641 273.453 212.675 273.378 212.684 273.301V273.281C212.687 273.185 212.651 273.087 212.571 273.013L206.564 267.515C206.474 267.433 206.347 267.404 206.227 267.44L205.996 267.51L205.991 267.513L192.448 271.695L192.444 271.698L192.095 271.804C192.089 271.806 192.083 271.809 192.078 271.81C191.927 271.868 191.845 272.009 191.85 272.152Z" fill="white"/>
<path d="M211.704 266.067C211.707 266.148 211.737 266.228 211.8 266.293C211.805 266.299 211.811 266.303 211.816 266.309L211.969 266.447L217.488 271.498C217.785 271.773 218.205 271.866 218.593 271.747L218.948 271.637L231.938 267.625L232.172 267.552L232.292 267.515C232.352 267.496 232.403 267.467 232.441 267.425C232.494 267.367 232.528 267.292 232.536 267.215V267.196C232.539 267.1 232.505 267.002 232.425 266.928L226.418 261.43C226.327 261.347 226.199 261.319 226.08 261.354L225.849 261.424L225.845 261.427L212.303 265.609L212.299 265.612L211.948 265.719C211.942 265.72 211.936 265.723 211.932 265.725C211.782 265.782 211.698 265.924 211.704 266.067Z" fill="white"/>
<path d="M231.557 259.981C231.56 260.062 231.591 260.142 231.654 260.207C231.658 260.213 231.664 260.219 231.671 260.224L231.822 260.361L237.341 265.412C237.639 265.686 238.059 265.781 238.447 265.661L238.803 265.551L251.791 261.539L252.027 261.468L252.146 261.43C252.206 261.412 252.256 261.381 252.294 261.34C252.349 261.282 252.383 261.206 252.391 261.131V261.11C252.394 261.014 252.36 260.916 252.28 260.842L246.273 255.346C246.182 255.261 246.055 255.233 245.935 255.269L245.703 255.34L245.698 255.341L232.157 259.524L232.152 259.527L231.803 259.633C231.797 259.635 231.791 259.638 231.787 259.639C231.634 259.697 231.552 259.839 231.557 259.981Z" fill="white"/>
<path d="M153.125 291.55C153.125 291.625 153.077 291.721 153.027 291.77C152.98 291.819 152.931 291.844 152.881 291.867L152.759 291.893L152.515 291.966L79.9784 314.228L79.6099 314.351C79.2177 314.473 78.8033 314.375 78.5088 314.107L72.9812 309.043L72.8347 308.92C72.8347 308.895 72.8347 308.895 72.8347 308.895C72.7607 308.822 72.7385 308.748 72.7385 308.674C72.7119 308.528 72.8095 308.381 72.9575 308.334C72.9575 308.334 72.9575 308.334 72.9812 308.334L73.3246 308.211L146.424 285.778L146.669 285.706C146.791 285.655 146.913 285.705 147.01 285.778L153.003 291.283C153.101 291.354 153.125 291.452 153.125 291.55Z" fill="white"/>
<path d="M52.8717 314.752C52.8762 314.834 52.9058 314.914 52.9694 314.977C52.9739 314.983 52.9783 314.989 52.9842 314.994L53.1366 315.134L58.6568 320.184C58.9543 320.458 59.3746 320.551 59.7624 320.432L60.1176 320.323L73.107 316.311L73.3409 316.238L73.4637 316.203C73.5214 316.183 73.5717 316.152 73.6102 316.109C73.665 316.053 73.699 315.979 73.7049 315.901V315.882C73.7079 315.785 73.6753 315.688 73.5954 315.612L67.5868 310.116C67.4966 310.031 67.3708 310.005 67.2509 310.039L67.0171 310.111L67.0141 310.113L53.4726 314.295L53.4681 314.298L53.1174 314.405C53.1115 314.406 53.107 314.409 53.1026 314.412C52.9502 314.468 52.8673 314.612 52.8717 314.752Z" fill="white"/>
<path d="M33.0182 320.839C33.0227 320.921 33.0523 321.001 33.1144 321.064C33.1189 321.07 33.1248 321.076 33.1307 321.081L33.2832 321.221L38.8033 326.271C39.1008 326.545 39.5211 326.638 39.9089 326.519L40.2641 326.41L53.2535 322.398L53.4874 322.325L53.6087 322.29C53.6679 322.27 53.7182 322.239 53.7552 322.196C53.81 322.14 53.844 322.065 53.8514 321.988V321.969C53.8544 321.872 53.8204 321.775 53.7404 321.699L47.7333 316.203C47.6416 316.118 47.5143 316.092 47.3959 316.126L47.1636 316.198L47.1606 316.2L33.6176 320.382L33.6132 320.385L33.2624 320.492C33.2565 320.493 33.2521 320.496 33.2476 320.497C33.0952 320.554 33.0123 320.697 33.0182 320.839Z" fill="white"/>
<path d="M13.1648 326.925C13.1677 327.006 13.1988 327.086 13.2625 327.15C13.2669 327.156 13.2713 327.162 13.2772 327.166L13.4297 327.305L18.9499 332.356C19.2474 332.63 19.6677 332.723 20.0539 332.605L20.4091 332.495L33.3986 328.483L33.6324 328.411L33.7553 328.374C33.8145 328.356 33.8633 328.325 33.9018 328.282C33.9565 328.226 33.9891 328.15 33.9965 328.073V328.055C33.998 327.959 33.9654 327.862 33.8855 327.786L27.8784 322.29C27.7866 322.205 27.6609 322.179 27.5425 322.213L27.3101 322.285L27.3071 322.287L13.7642 326.469L13.7597 326.472L13.409 326.578C13.403 326.58 13.3986 326.583 13.3927 326.584C13.2417 326.641 13.1589 326.783 13.1648 326.925Z" fill="white"/>
<path d="M-6.6902 333.01C-6.68576 333.092 -6.65617 333.172 -6.59253 333.235C-6.58809 333.241 -6.58366 333.246 -6.57774 333.252L-6.42529 333.391L-0.906587 338.442C-0.609118 338.716 -0.188799 338.809 0.198946 338.691L0.554119 338.581L13.5436 334.569L13.7789 334.495L13.8988 334.459C13.958 334.44 14.0083 334.41 14.0453 334.368C14.1001 334.311 14.1341 334.236 14.1415 334.159V334.14C14.143 334.043 14.1104 333.946 14.0305 333.87L8.0234 328.374C7.93164 328.289 7.80586 328.263 7.68747 328.297L7.45363 328.369L7.45067 328.371L-6.09082 332.553L-6.09527 332.556L-6.44602 332.663C-6.45194 332.664 -6.45638 332.667 -6.4623 332.669C-6.61177 332.725 -6.69612 332.87 -6.6902 333.01Z" fill="white"/>
<path d="M227.739 238.488V238.513C227.715 238.587 227.692 238.661 227.643 238.708C227.594 238.757 227.545 238.782 227.496 238.806L227.374 238.83L227.128 238.905L207.631 244.899L207.508 244.923L207.289 244.997L194.298 249.01L193.933 249.132C193.541 249.229 193.125 249.158 192.832 248.862L187.304 243.823L187.156 243.675C187.082 243.603 187.058 243.529 187.058 243.431C187.033 243.31 187.132 243.162 187.277 243.091C187.277 243.091 187.277 243.091 187.304 243.091L187.646 242.993L221.038 232.718L221.284 232.645C221.406 232.618 221.528 232.645 221.625 232.718L227.619 238.223C227.692 238.291 227.739 238.39 227.739 238.488Z" fill="white"/>
</svg>
