<svg width="35" height="35" viewBox="0 0 35 35" fill="none" xmlns="http://www.w3.org/2000/svg">
<path d="M35 2.57353V32.4264C35 33.1089 34.7289 33.7636 34.2463 34.2463C33.7636 34.7289 33.1089 35 32.4264 35H2.57353C1.89098 35 1.23639 34.7289 0.753778 34.2463C0.271145 33.7636 0 33.1089 0 32.4264V2.57353C0 1.89098 0.271145 1.23639 0.753778 0.753778C1.23639 0.271145 1.89098 0 2.57353 0H32.4264C33.1089 0 33.7636 0.271145 34.2463 0.753778C34.7289 1.23639 35 1.89098 35 2.57353ZM10.2941 13.3824H5.14707V29.8529H10.2941V13.3824ZM10.7574 7.7206C10.7601 7.33126 10.6861 6.94521 10.5396 6.58446C10.3931 6.22373 10.177 5.89538 9.90358 5.61818C9.6302 5.34097 9.30489 5.12031 8.94623 4.96883C8.58757 4.81735 8.20257 4.73799 7.81324 4.73529H7.7206C6.92884 4.73529 6.16952 5.04982 5.60966 5.60966C5.04982 6.16952 4.73529 6.92884 4.73529 7.7206C4.73529 8.51233 5.04982 9.27166 5.60966 9.83152C6.16952 10.3914 6.92884 10.7059 7.7206 10.7059C8.10995 10.7155 8.49739 10.6482 8.86074 10.508C9.22411 10.3678 9.55629 10.1574 9.83831 9.88876C10.1203 9.62014 10.3466 9.29856 10.5043 8.94243C10.662 8.58631 10.748 8.2026 10.7574 7.81324V7.7206ZM29.8529 19.8471C29.8529 14.8956 26.7029 12.9706 23.5736 12.9706C22.5489 12.9193 21.5287 13.1375 20.6148 13.6035C19.7008 14.0695 18.925 14.767 18.3647 15.6265H18.2206V13.3824H13.3824V29.8529H18.5294V21.0926C18.455 20.1955 18.7376 19.3051 19.3158 18.6151C19.8942 17.9251 20.7212 17.4911 21.6176 17.4074H21.8132C23.45 17.4074 24.6647 18.4368 24.6647 21.0308V29.8529H29.8118L29.8529 19.8471Z" fill="white"/>
</svg>
