<svg width="301" height="184" viewBox="0 0 301 184" fill="none" xmlns="http://www.w3.org/2000/svg">
<path d="M242.97 18.1155H47.7957C44.4309 18.1155 41.7034 20.843 41.7034 24.2073V162.063C41.7034 165.428 44.4309 168.156 47.7957 168.156H122.703L118.913 204.791L173.471 204.45L170.35 168.155H242.97C246.334 168.155 249.062 165.428 249.062 162.063V24.2078C249.062 20.843 246.335 18.1155 242.97 18.1155Z" fill="#212B50"/>
<path d="M147.989 153.658C150.644 157.452 146.489 161.607 142.693 158.953C142.568 158.865 142.454 158.752 142.367 158.626C139.719 154.833 143.87 150.683 147.662 153.332C147.787 153.419 147.901 153.533 147.989 153.658Z" fill="white"/>
<path d="M245.702 142.937H45.064V25.1323C45.064 22.6517 47.075 20.6411 49.5552 20.6411H241.21C243.691 20.6411 245.702 22.6521 245.702 25.1323L245.702 142.937Z" fill="#EAEEFF"/>
<path d="M245.702 30.8032H45.064V24.8808C45.064 22.5396 46.962 20.6411 49.3037 20.6411H242.221C244.143 20.6411 245.702 22.1996 245.702 24.1222V30.8032Z" fill="#1F1F1F"/>
<path d="M52.8626 25.9354C52.8626 26.7139 52.2318 27.3448 51.4532 27.3448C50.6746 27.3448 50.0438 26.7139 50.0438 25.9354C50.0438 25.1568 50.6746 24.526 51.4532 24.526C52.2318 24.526 52.8626 25.1568 52.8626 25.9354Z" fill="#E0E0E0"/>
<path d="M57.0644 25.9354C57.0644 26.7139 56.4335 27.3448 55.655 27.3448C54.8764 27.3448 54.2456 26.7139 54.2456 25.9354C54.2456 25.1568 54.8764 24.526 55.655 24.526C56.4335 24.526 57.0644 25.1568 57.0644 25.9354Z" fill="#E0E0E0"/>
<path d="M61.06 25.9354C61.06 26.7139 60.4292 27.3448 59.6506 27.3448C58.872 27.3448 58.2412 26.7139 58.2412 25.9354C58.2412 25.1568 58.872 24.526 59.6506 24.526C60.4292 24.526 61.06 25.1568 61.06 25.9354Z" fill="#E0E0E0"/>
<path d="M190.488 168.158C190.488 168.225 174.126 168.278 153.948 168.278C133.763 168.278 117.405 168.224 117.405 168.158C117.405 168.092 133.763 168.038 153.948 168.038C174.126 168.038 190.488 168.092 190.488 168.158Z" fill="white"/>
<path d="M78.0415 30.8031H45.064V142.936H78.0415V30.8031Z" fill="#56618D"/>
<path d="M59.5574 33.2C59.7311 33.0949 59.9159 33.0157 60.1063 32.9615L60.2193 32.4182L61.1377 32.402L61.2697 32.9411C61.4619 32.9883 61.6495 33.0615 61.8269 33.1602L62.291 32.8559L62.9514 33.4936L62.6638 33.9679C62.769 34.1416 62.8482 34.3264 62.9023 34.5172L63.4456 34.6302L63.4618 35.5486L62.9227 35.6806C62.8755 35.8729 62.8023 36.0604 62.7037 36.2378L63.0079 36.7019L62.3702 37.3624L61.8959 37.0747C61.7222 37.1799 61.5374 37.2591 61.3466 37.3133L61.2336 37.857L60.3156 37.8732L60.1836 37.3341C59.9914 37.2869 59.8038 37.2137 59.6265 37.115L59.1624 37.4193L58.5019 36.7816L58.7895 36.3073C58.6844 36.1336 58.6052 35.9488 58.551 35.758L58.0077 35.645L57.9915 34.727L58.5306 34.595C58.5779 34.4028 58.6511 34.2152 58.7497 34.0378L58.4454 33.5738L59.0832 32.9133L59.5574 33.2ZM60.047 34.4232C59.6691 34.8145 59.6802 35.4384 60.0715 35.8164C60.4629 36.1943 61.0868 36.1832 61.4647 35.7918C61.8426 35.4004 61.8315 34.7766 61.4402 34.3986C61.0483 34.0207 60.4249 34.0318 60.047 34.4232Z" fill="#E0E0E0"/>
<path d="M67.1759 58.931H52.8001C51.984 58.931 51.3226 58.2696 51.3226 57.4535C51.3226 56.6375 51.984 55.9761 52.8001 55.9761H67.1759C67.992 55.9761 68.6534 56.6375 68.6534 57.4535C68.6529 58.2696 67.9916 58.931 67.1759 58.931Z" fill="#E0E0E0"/>
<path d="M67.1759 51.4043H52.8001C51.984 51.4043 51.3226 50.7429 51.3226 49.9268C51.3226 49.1107 51.984 48.4493 52.8001 48.4493H67.1759C67.992 48.4493 68.6534 49.1107 68.6534 49.9268C68.6529 50.7429 67.9916 51.4043 67.1759 51.4043Z" fill="#E0E0E0"/>
<path d="M67.1759 44.5195H52.8001C51.984 44.5195 51.3226 43.8581 51.3226 43.042C51.3226 42.226 51.984 41.5646 52.8001 41.5646H67.1759C67.992 41.5646 68.6534 42.226 68.6534 43.042C68.6529 43.8581 67.9916 44.5195 67.1759 44.5195Z" fill="#E0E0E0"/>
<path d="M105.801 43.671H92.1839C91.3678 43.671 90.7064 43.0096 90.7064 42.1935C90.7064 41.3774 91.3678 40.7161 92.1839 40.7161H105.801C106.617 40.7161 107.278 41.3774 107.278 42.1935C107.278 43.0096 106.616 43.671 105.801 43.671Z" fill="white"/>
<path d="M105.801 51.4043H92.1839C91.3678 51.4043 90.7064 50.7429 90.7064 49.9268C90.7064 49.1107 91.3678 48.4493 92.1839 48.4493H105.801C106.617 48.4493 107.278 49.1107 107.278 49.9268C107.278 50.7429 106.616 51.4043 105.801 51.4043Z" fill="#E0E0E0"/>
<path d="M105.801 59.396H92.1839C91.3678 59.396 90.7064 58.7346 90.7064 57.9185C90.7064 57.1024 91.3678 56.441 92.1839 56.441H105.801C106.617 56.441 107.278 57.1024 107.278 57.9185C107.278 58.7346 106.616 59.396 105.801 59.396Z" fill="#170D0B"/>
<path d="M99.9922 74.8473H92.1839C91.3678 74.8473 90.7064 74.1859 90.7064 73.3698C90.7064 72.5537 91.3678 71.8923 92.1839 71.8923H99.9922C100.808 71.8923 101.47 72.5537 101.47 73.3698C101.469 74.1859 100.808 74.8473 99.9922 74.8473Z" fill="white"/>
<path d="M99.9922 82.8565H92.1839C91.3678 82.8565 90.7064 82.1952 90.7064 81.3791C90.7064 80.563 91.3678 79.9016 92.1839 79.9016H99.9922C100.808 79.9016 101.47 80.563 101.47 81.3791C101.469 82.1952 100.808 82.8565 99.9922 82.8565Z" fill="white"/>
<path d="M123.197 82.8565H108.88C108.064 82.8565 107.403 82.1952 107.403 81.3791C107.403 80.563 108.064 79.9016 108.88 79.9016H123.197C124.013 79.9016 124.675 80.563 124.675 81.3791C124.675 82.1952 124.013 82.8565 123.197 82.8565Z" fill="#E0E0E0"/>
<path d="M115.099 89.979H100.782C99.9663 89.979 99.3049 89.3176 99.3049 88.5015C99.3049 87.6854 99.9663 87.024 100.782 87.024H115.099C115.915 87.024 116.577 87.6854 116.577 88.5015C116.577 89.3176 115.915 89.979 115.099 89.979Z" fill="#170D0B"/>
<path d="M117.841 98.1027H108.869C108.074 98.1027 107.43 97.4584 107.43 96.6636V96.5872C107.43 95.7924 108.074 95.1482 108.869 95.1482H117.841C118.636 95.1482 119.28 95.7924 119.28 96.5872V96.6632C119.28 97.4584 118.636 98.1027 117.841 98.1027Z" fill="#170D0B"/>
<path d="M117.802 114.024H108.906C108.09 114.024 107.429 113.363 107.429 112.547C107.429 111.731 108.09 111.069 108.906 111.069H117.802C118.618 111.069 119.28 111.731 119.28 112.547C119.28 113.363 118.618 114.024 117.802 114.024Z" fill="#170D0B"/>
<path d="M117.802 130.841H108.906C108.09 130.841 107.429 130.179 107.429 129.363C107.429 128.547 108.09 127.886 108.906 127.886H117.802C118.618 127.886 119.28 128.547 119.28 129.363C119.28 130.179 118.618 130.841 117.802 130.841Z" fill="#170D0B"/>
<path d="M139.672 130.841H124.076C123.26 130.841 122.598 130.179 122.598 129.363C122.598 128.547 123.26 127.886 124.076 127.886H139.672C140.488 127.886 141.15 128.547 141.15 129.363C141.15 130.179 140.488 130.841 139.672 130.841Z" fill="#212B50"/>
<path d="M150.589 130.841H148.342C147.526 130.841 146.864 130.179 146.864 129.363C146.864 128.547 147.526 127.886 148.342 127.886H150.589C151.405 127.886 152.066 128.547 152.066 129.363C152.066 130.179 151.405 130.841 150.589 130.841Z" fill="#E0E0E0"/>
<path d="M138.737 114.024H125.557C124.741 114.024 124.08 113.363 124.08 112.547C124.08 111.731 124.741 111.069 125.557 111.069H138.737C139.553 111.069 140.215 111.731 140.215 112.547C140.215 113.363 139.553 114.024 138.737 114.024Z" fill="#E0E0E0"/>
<path d="M167.64 121.406H125.557C124.741 121.406 124.08 120.745 124.08 119.929C124.08 119.113 124.741 118.451 125.557 118.451H167.64C168.456 118.451 169.117 119.113 169.117 119.929C169.117 120.745 168.456 121.406 167.64 121.406Z" fill="#E0E0E0"/>
<path d="M172.501 114.024H145.633C144.817 114.024 144.155 113.363 144.155 112.547C144.155 111.731 144.817 111.069 145.633 111.069H172.501C173.317 111.069 173.978 111.731 173.978 112.547C173.978 113.363 173.317 114.024 172.501 114.024Z" fill="#212B50"/>
<path d="M135.797 98.1027H124.589C123.795 98.1027 123.15 97.4584 123.15 96.6636V96.5872C123.15 95.7924 123.795 95.1482 124.589 95.1482H135.797C136.592 95.1482 137.236 95.7924 137.236 96.5872V96.6636C137.236 97.4584 136.592 98.1027 135.797 98.1027Z" fill="#212B50"/>
<path d="M145.431 98.1027H142.589C141.794 98.1027 141.149 97.4584 141.149 96.6636V96.5872C141.149 95.7924 141.793 95.1482 142.589 95.1482H145.431C146.226 95.1482 146.87 95.7924 146.87 96.5872V96.6632C146.87 97.4584 146.226 98.1027 145.431 98.1027Z" fill="#E0E0E0"/>
<path d="M166.654 98.1027H152.66C151.865 98.1027 151.22 97.4584 151.22 96.6636V96.5872C151.22 95.7924 151.865 95.1482 152.66 95.1482H166.654C167.449 95.1482 168.094 95.7924 168.094 96.5872V96.6636C168.094 97.4584 167.449 98.1027 166.654 98.1027Z" fill="#E0E0E0"/>
<path d="M124.797 89.979H121.608C120.792 89.979 120.13 89.3176 120.13 88.5015C120.13 87.6854 120.792 87.024 121.608 87.024H124.797C125.613 87.024 126.275 87.6854 126.275 88.5015C126.275 89.3176 125.613 89.979 124.797 89.979Z" fill="white"/>
<path d="M151.826 89.979H131.513C130.697 89.979 130.036 89.3176 130.036 88.5015C130.036 87.6854 130.697 87.024 131.513 87.024H151.826C152.642 87.024 153.304 87.6854 153.304 88.5015C153.304 89.3176 152.642 89.979 151.826 89.979Z" fill="#E0E0E0"/>
<path d="M127.615 43.671H113.999C113.182 43.671 112.521 43.0096 112.521 42.1935C112.521 41.3774 113.182 40.7161 113.999 40.7161H127.615C128.431 40.7161 129.093 41.3774 129.093 42.1935C129.093 43.0096 128.431 43.671 127.615 43.671Z" fill="#212B50"/>
<path d="M145.16 51.4043H113.999C113.183 51.4043 112.521 50.7429 112.521 49.9268C112.521 49.1107 113.183 48.4493 113.999 48.4493H145.16C145.976 48.4493 146.637 49.1107 146.637 49.9268C146.637 50.7429 145.976 51.4043 145.16 51.4043Z" fill="white"/>
<path d="M178.709 59.396H113.999C113.182 59.396 112.521 58.7346 112.521 57.9185C112.521 57.1024 113.182 56.441 113.999 56.441H178.709C179.525 56.441 180.187 57.1024 180.187 57.9185C180.187 58.7346 179.525 59.396 178.709 59.396Z" fill="#E0E0E0"/>
<path d="M144.511 65.0251H113.999C113.182 65.0251 112.521 64.3637 112.521 63.5477C112.521 62.7316 113.182 62.0702 113.999 62.0702H144.511C145.327 62.0702 145.988 62.7316 145.988 63.5477C145.988 64.3637 145.327 65.0251 144.511 65.0251Z" fill="#E0E0E0"/>
<path d="M138.269 74.8473H107.757C106.941 74.8473 106.28 74.1859 106.28 73.3698C106.28 72.5537 106.941 71.8923 107.757 71.8923H138.269C139.085 71.8923 139.747 72.5537 139.747 73.3698C139.746 74.1859 139.085 74.8473 138.269 74.8473Z" fill="#212B50"/>
<path d="M155.35 74.8473H145.123C144.307 74.8473 143.645 74.1859 143.645 73.3698C143.645 72.5537 144.307 71.8923 145.123 71.8923H155.35C156.166 71.8923 156.828 72.5537 156.828 73.3698C156.828 74.1859 156.166 74.8473 155.35 74.8473Z" fill="#170D0B"/>
<path d="M181.499 74.7995H162.179C161.363 74.7995 160.702 74.1381 160.702 73.3221C160.702 72.506 161.363 71.8446 162.179 71.8446H181.499C182.315 71.8446 182.976 72.506 182.976 73.3221C182.976 74.1377 182.314 74.7995 181.499 74.7995Z" fill="white"/>
<path d="M207.79 74.7995H188.471C187.654 74.7995 186.993 74.1381 186.993 73.3221C186.993 72.506 187.654 71.8446 188.471 71.8446H207.79C208.606 71.8446 209.267 72.506 209.267 73.3221C209.267 74.1377 208.606 74.7995 207.79 74.7995Z" fill="#E0E0E0"/>
<path d="M60.9498 66.8982H52.8001C51.984 66.8982 51.3226 66.2368 51.3226 65.4207C51.3226 64.6046 51.984 63.9432 52.8001 63.9432H60.9498C61.7658 63.9432 62.4272 64.6046 62.4272 65.4207C62.4272 66.2363 61.7658 66.8982 60.9498 66.8982Z" fill="#E0E0E0"/>
<path d="M58.5108 90.7992H52.8005C51.9844 90.7992 51.3231 90.1378 51.3231 89.3217C51.3231 88.5056 51.9844 87.8442 52.8005 87.8442H58.5108C59.3268 87.8442 59.9882 88.5056 59.9882 89.3217C59.9878 90.1378 59.3264 90.7992 58.5108 90.7992Z" fill="#E0E0E0"/>
<path d="M68.6529 74.8648H52.8001C51.984 74.8648 51.3226 74.2035 51.3226 73.3874C51.3226 72.5713 51.984 71.9099 52.8001 71.9099H68.6529C69.469 71.9099 70.1304 72.5713 70.1304 73.3874C70.1304 74.2035 69.469 74.8648 68.6529 74.8648Z" fill="#E0E0E0"/>
<path d="M65.8717 82.832H52.8001C51.984 82.832 51.3226 82.1706 51.3226 81.3545C51.3226 80.5385 51.984 79.8771 52.8001 79.8771H65.8717C66.6878 79.8771 67.3492 80.5385 67.3492 81.3545C67.3492 82.1706 66.6873 82.832 65.8717 82.832Z" fill="#E0E0E0"/>
<path d="M85.5094 42.194C85.5094 43.0226 84.8374 43.6946 84.0088 43.6946C83.1802 43.6946 82.5082 43.0226 82.5082 42.194C82.5082 41.3649 83.1802 40.6934 84.0088 40.6934C84.8374 40.6929 85.5094 41.3649 85.5094 42.194Z" fill="#212B50"/>
<path d="M85.5094 49.9036C85.5094 50.7326 84.8374 51.4042 84.0088 51.4042C83.1802 51.4042 82.5082 50.7322 82.5082 49.9036C82.5082 49.075 83.1802 48.403 84.0088 48.403C84.8374 48.403 85.5094 49.075 85.5094 49.9036Z" fill="#212B50"/>
<path d="M85.5094 57.919C85.5094 58.7475 84.8374 59.4196 84.0088 59.4196C83.1802 59.4196 82.5082 58.7475 82.5082 57.919C82.5082 57.0899 83.1802 56.4183 84.0088 56.4183C84.8374 56.4179 85.5094 57.0899 85.5094 57.919Z" fill="#212B50"/>
<path d="M85.5094 65.9338C85.5094 66.7624 84.8374 67.4345 84.0088 67.4345C83.1802 67.4345 82.5082 66.7624 82.5082 65.9338C82.5082 65.1053 83.1802 64.4332 84.0088 64.4332C84.8374 64.4332 85.5094 65.1053 85.5094 65.9338Z" fill="#212B50"/>
<path d="M85.5094 73.9487C85.5094 74.7778 84.8374 75.4494 84.0088 75.4494C83.1802 75.4494 82.5082 74.7773 82.5082 73.9487C82.5082 73.1202 83.1802 72.4481 84.0088 72.4481C84.8374 72.4481 85.5094 73.1202 85.5094 73.9487Z" fill="#212B50"/>
<path d="M85.5094 81.9636C85.5094 82.7922 84.8374 83.4643 84.0088 83.4643C83.1802 83.4643 82.5082 82.7922 82.5082 81.9636C82.5082 81.135 83.1802 80.463 84.0088 80.463C84.8374 80.463 85.5094 81.135 85.5094 81.9636Z" fill="#212B50"/>
<path d="M85.5094 89.979C85.5094 90.8081 84.8374 91.4796 84.0088 91.4796C83.1802 91.4796 82.5082 90.8076 82.5082 89.979C82.5082 89.1504 83.1802 88.4784 84.0088 88.4784C84.8374 88.4784 85.5094 89.15 85.5094 89.979Z" fill="#212B50"/>
<path d="M85.5094 97.9939C85.5094 98.8225 84.8374 99.4945 84.0088 99.4945C83.1802 99.4945 82.5082 98.8225 82.5082 97.9939C82.5082 97.1653 83.1802 96.4933 84.0088 96.4933C84.8374 96.4933 85.5094 97.1653 85.5094 97.9939Z" fill="#212B50"/>
<path d="M85.5094 106.009C85.5094 106.838 84.8374 107.509 84.0088 107.509C83.1802 107.509 82.5082 106.837 82.5082 106.009C82.5082 105.18 83.1802 104.508 84.0088 104.508C84.8374 104.508 85.5094 105.18 85.5094 106.009Z" fill="#212B50"/>
<path d="M85.5094 114.024C85.5094 114.853 84.8374 115.525 84.0088 115.525C83.1802 115.525 82.5082 114.853 82.5082 114.024C82.5082 113.195 83.1802 112.523 84.0088 112.523C84.8374 112.523 85.5094 113.195 85.5094 114.024Z" fill="#212B50"/>
<path d="M85.5094 122.039C85.5094 122.868 84.8374 123.54 84.0088 123.54C83.1802 123.54 82.5082 122.868 82.5082 122.039C82.5082 121.21 83.1802 120.538 84.0088 120.538C84.8374 120.538 85.5094 121.21 85.5094 122.039Z" fill="#212B50"/>
<path d="M85.5094 130.054C85.5094 130.882 84.8374 131.554 84.0088 131.554C83.1802 131.554 82.5082 130.882 82.5082 130.054C82.5082 129.225 83.1802 128.553 84.0088 128.553C84.8374 128.553 85.5094 129.225 85.5094 130.054Z" fill="#212B50"/>
<path d="M274.087 204.022L221.157 203.991C214.791 203.988 209.633 198.867 209.634 192.552L209.66 60.9285C209.662 54.6106 214.827 49.4904 221.196 49.4941L274.127 49.5252C280.493 49.5289 285.651 54.6495 285.649 60.9642L285.624 192.588C285.622 198.906 280.457 204.026 274.087 204.022Z" fill="#263238"/>
<path d="M273.952 54.2192L263.69 54.2131C262.314 54.2127 261.198 55.3687 261.198 56.7957L261.197 58.6423C261.197 60.0693 260.081 61.2258 258.705 61.2248L238.701 61.2133C237.325 61.2128 236.21 60.0549 236.21 58.6279L236.211 56.7813C236.211 55.3544 235.095 54.1965 233.719 54.196L230.11 54.1937L221.128 54.1886C216.667 54.1863 213.049 57.772 213.048 62.1965L213.022 190.671C213.021 195.094 216.634 198.68 221.092 198.683L273.916 198.713C278.377 198.716 281.995 195.13 281.996 190.705L282.021 62.2303C282.023 57.8081 278.41 54.2219 273.952 54.2192Z" fill="white"/>
<path d="M231.924 198.802H221.465C216.835 198.802 213.082 195.048 213.082 190.419V73.6156H231.924L231.924 198.802Z" fill="#EBEBEB"/>
<path d="M251.742 82.3536H242.768C242.23 82.3536 241.794 81.895 241.794 81.3291C241.794 80.7636 242.23 80.3046 242.768 80.3046H251.742C252.28 80.3046 252.715 80.7631 252.715 81.3291C252.715 81.8946 252.28 82.3536 251.742 82.3536Z" fill="#263238"/>
<path d="M252.021 87.6993H243.047C242.509 87.6993 242.074 87.2407 242.074 86.6748C242.074 86.1093 242.509 85.6503 243.047 85.6503H252.021C252.559 85.6503 252.995 86.1088 252.995 86.6748C252.995 87.2407 252.559 87.6993 252.021 87.6993Z" fill="#E0E0E0"/>
<path d="M252.129 93.8134H243.155C242.617 93.8134 242.181 93.3549 242.181 92.7889C242.181 92.2234 242.617 91.7644 243.155 91.7644H252.129C252.666 91.7644 253.102 92.2229 253.102 92.7889C253.103 93.3549 252.666 93.8134 252.129 93.8134Z" fill="#FF725E"/>
<path d="M266.155 98.4482H257.181C256.643 98.4482 256.207 97.9896 256.207 97.4237C256.207 96.8582 256.643 96.3992 257.181 96.3992H266.155C266.693 96.3992 267.128 96.8577 267.128 97.4237C267.128 97.9892 266.693 98.4482 266.155 98.4482Z" fill="#E0E0E0"/>
<path d="M249.828 104.527H244.682C244.144 104.527 243.708 104.069 243.708 103.503C243.708 102.937 244.144 102.478 244.682 102.478H249.828C250.365 102.478 250.801 102.937 250.801 103.503C250.801 104.069 250.365 104.527 249.828 104.527Z" fill="#263238"/>
<path d="M249.828 110.081H244.682C244.144 110.081 243.708 109.622 243.708 109.056C243.708 108.491 244.144 108.032 244.682 108.032H249.828C250.365 108.032 250.801 108.49 250.801 109.056C250.801 109.622 250.365 110.081 249.828 110.081Z" fill="#263238"/>
<path d="M265.122 110.081H255.686C255.148 110.081 254.712 109.622 254.712 109.056C254.712 108.491 255.148 108.032 255.686 108.032H265.122C265.659 108.032 266.095 108.49 266.095 109.056C266.096 109.622 265.66 110.081 265.122 110.081Z" fill="#E0E0E0"/>
<path d="M254.108 116.627H244.672C244.134 116.627 243.698 116.168 243.698 115.602C243.698 115.037 244.134 114.578 244.672 114.578H254.108C254.645 114.578 255.081 115.037 255.081 115.602C255.081 116.168 254.645 116.627 254.108 116.627Z" fill="#FF725E"/>
<path d="M254.747 121.236H248.932C248.381 121.236 247.934 120.789 247.934 120.238V120.185C247.934 119.634 248.381 119.187 248.932 119.187H254.747C255.298 119.187 255.745 119.634 255.745 120.185V120.238C255.745 120.789 255.298 121.236 254.747 121.236Z" fill="#FF725E"/>
<path d="M251.267 130.213H245.404C244.866 130.213 244.431 129.754 244.431 129.188C244.431 128.623 244.866 128.164 245.404 128.164H251.267C251.805 128.164 252.241 128.622 252.241 129.188C252.241 129.754 251.805 130.213 251.267 130.213Z" fill="#FF725E"/>
<path d="M251.267 141.873H245.404C244.866 141.873 244.431 141.415 244.431 140.849C244.431 140.283 244.866 139.824 245.404 139.824H251.267C251.805 139.824 252.241 140.283 252.241 140.849C252.241 141.414 251.805 141.873 251.267 141.873Z" fill="#FF725E"/>
<path d="M265.681 141.873H255.401C254.864 141.873 254.428 141.415 254.428 140.849C254.428 140.283 254.864 139.824 255.401 139.824H265.681C266.218 139.824 266.654 140.283 266.654 140.849C266.655 141.414 266.218 141.873 265.681 141.873Z" fill="#455A64"/>
<path d="M278.718 130.435H268.438C267.901 130.435 267.465 129.977 267.465 129.411C267.465 128.845 267.901 128.386 268.438 128.386H278.718C279.255 128.386 279.691 128.845 279.691 129.411C279.691 129.977 279.255 130.435 278.718 130.435Z" fill="#455A64"/>
<path d="M266.367 134.792H256.088C255.55 134.792 255.114 134.333 255.114 133.767C255.114 133.201 255.55 132.743 256.088 132.743H266.367C266.905 132.743 267.341 133.201 267.341 133.767C267.341 134.333 266.905 134.792 266.367 134.792Z" fill="#455A64"/>
<path d="M272.876 141.873H271.395C270.857 141.873 270.421 141.415 270.421 140.849C270.421 140.283 270.857 139.824 271.395 139.824H272.876C273.413 139.824 273.849 140.283 273.849 140.849C273.849 141.414 273.413 141.873 272.876 141.873Z" fill="#E0E0E0"/>
<path d="M265.065 130.213H256.378C255.84 130.213 255.405 129.754 255.405 129.188C255.405 128.623 255.84 128.164 256.378 128.164H265.065C265.602 128.164 266.038 128.622 266.038 129.188C266.039 129.754 265.602 130.213 265.065 130.213Z" fill="#E0E0E0"/>
<path d="M266.581 121.236H259.294C258.743 121.236 258.296 120.789 258.296 120.238V120.185C258.296 119.634 258.743 119.187 259.294 119.187H266.581C267.133 119.187 267.58 119.634 267.58 120.185V120.238C267.58 120.789 267.133 121.236 266.581 121.236Z" fill="#455A64"/>
<path d="M272.931 121.236H271.157C270.606 121.236 270.159 120.789 270.159 120.238V120.185C270.159 119.634 270.606 119.187 271.157 119.187H272.931C273.482 119.187 273.929 119.634 273.929 120.185V120.238C273.929 120.789 273.482 121.236 272.931 121.236Z" fill="#E0E0E0"/>
<path d="M260.499 116.627H258.397C257.859 116.627 257.423 116.168 257.423 115.602C257.423 115.037 257.859 114.578 258.397 114.578H260.499C261.037 114.578 261.473 115.037 261.473 115.602C261.473 116.168 261.037 116.627 260.499 116.627Z" fill="#263238"/>
<path d="M278.313 116.627H264.925C264.387 116.627 263.952 116.168 263.952 115.602C263.952 115.037 264.387 114.578 264.925 114.578H278.313C278.851 114.578 279.287 115.037 279.287 115.602C279.287 116.168 278.851 116.627 278.313 116.627Z" fill="#E0E0E0"/>
<path d="M265.246 82.3536H256.272C255.734 82.3536 255.298 81.895 255.298 81.3291C255.298 80.7636 255.734 80.3046 256.272 80.3046H265.246C265.783 80.3046 266.219 80.7631 266.219 81.3291C266.219 81.8946 265.783 82.3536 265.246 82.3536Z" fill="#455A64"/>
<path d="M276.488 87.6993H255.95C255.413 87.6993 254.977 87.2407 254.977 86.6748C254.977 86.1093 255.413 85.6503 255.95 85.6503H276.488C277.026 85.6503 277.461 86.1088 277.461 86.6748C277.461 87.2407 277.026 87.6993 276.488 87.6993Z" fill="#263238"/>
<path d="M276.881 93.7712H256.772C256.234 93.7712 255.798 93.3126 255.798 92.7467C255.798 92.1807 256.234 91.7222 256.772 91.7222H276.881C277.419 91.7222 277.855 92.1807 277.855 92.7467C277.855 93.3126 277.419 93.7712 276.881 93.7712Z" fill="#E0E0E0"/>
<path d="M275.055 104.527H254.946C254.408 104.527 253.972 104.069 253.972 103.503C253.972 102.937 254.408 102.478 254.946 102.478H275.055C275.593 102.478 276.029 102.937 276.029 103.503C276.029 104.069 275.593 104.527 275.055 104.527Z" fill="#455A64"/>
<path d="M249.828 182.382H244.682C244.144 182.382 243.708 181.923 243.708 181.357C243.708 180.792 244.144 180.333 244.682 180.333H249.828C250.365 180.333 250.801 180.791 250.801 181.357C250.801 181.923 250.365 182.382 249.828 182.382Z" fill="#263238"/>
<path d="M275.055 182.382H254.946C254.408 182.382 253.972 181.923 253.972 181.357C253.972 180.792 254.408 180.333 254.946 180.333H275.055C275.593 180.333 276.029 180.791 276.029 181.357C276.029 181.923 275.593 182.382 275.055 182.382Z" fill="#455A64"/>
<path d="M224.096 100.39H218.725C218.187 100.39 217.751 99.9312 217.751 99.3652C217.751 98.7997 218.187 98.3407 218.725 98.3407H224.096C224.634 98.3407 225.07 98.7992 225.07 99.3652C225.07 99.9312 224.634 100.39 224.096 100.39Z" fill="#E0E0E0"/>
<path d="M224.096 106.09H218.725C218.187 106.09 217.751 105.631 217.751 105.065C217.751 104.5 218.187 104.041 218.725 104.041H224.096C224.634 104.041 225.07 104.499 225.07 105.065C225.07 105.631 224.634 106.09 224.096 106.09Z" fill="#E0E0E0"/>
<path d="M224.096 111.79H218.725C218.187 111.79 217.751 111.331 217.751 110.765C217.751 110.2 218.187 109.741 218.725 109.741H224.096C224.634 109.741 225.07 110.199 225.07 110.765C225.07 111.331 224.634 111.79 224.096 111.79Z" fill="#E0E0E0"/>
<path d="M224.096 94.6896H218.725C218.187 94.6896 217.751 94.2311 217.751 93.6651C217.751 93.0996 218.187 92.6406 218.725 92.6406H224.096C224.634 92.6406 225.07 93.0991 225.07 93.6651C225.07 94.2311 224.634 94.6896 224.096 94.6896Z" fill="#E0E0E0"/>
<path d="M224.096 88.9897H218.725C218.187 88.9897 217.751 88.5311 217.751 87.9652C217.751 87.3997 218.187 86.9407 218.725 86.9407H224.096C224.634 86.9407 225.07 87.3992 225.07 87.9652C225.07 88.5311 224.634 88.9897 224.096 88.9897Z" fill="#E0E0E0"/>
<path d="M224.096 83.29H218.725C218.187 83.29 217.751 82.8314 217.751 82.2655C217.751 81.6995 218.187 81.241 218.725 81.241H224.096C224.634 81.241 225.07 81.6995 225.07 82.2655C225.07 82.831 224.634 83.29 224.096 83.29Z" fill="#E0E0E0"/>
<path d="M222.489 117.489H218.725C218.187 117.489 217.751 117.031 217.751 116.465C217.751 115.899 218.187 115.44 218.725 115.44H222.489C223.026 115.44 223.462 115.899 223.462 116.465C223.462 117.031 223.026 117.489 222.489 117.489Z" fill="#E0E0E0"/>
<path d="M237.406 81.329C237.406 81.9038 236.956 82.3697 236.401 82.3697C235.846 82.3697 235.396 81.9038 235.396 81.329C235.396 80.7543 235.846 80.2883 236.401 80.2883C236.956 80.2883 237.406 80.7543 237.406 81.329Z" fill="#455A64"/>
<path d="M237.406 86.6752C237.406 87.25 236.956 87.7159 236.401 87.7159C235.846 87.7159 235.396 87.25 235.396 86.6752C235.396 86.1005 235.846 85.6345 236.401 85.6345C236.956 85.6345 237.406 86.1005 237.406 86.6752Z" fill="#455A64"/>
<path d="M237.406 92.2326C237.406 92.8074 236.956 93.2733 236.401 93.2733C235.846 93.2733 235.396 92.8074 235.396 92.2326C235.396 91.6578 235.846 91.1919 236.401 91.1919C236.956 91.1919 237.406 91.6578 237.406 92.2326Z" fill="#455A64"/>
<path d="M237.406 97.79C237.406 98.3647 236.956 98.8307 236.401 98.8307C235.846 98.8307 235.396 98.3647 235.396 97.79C235.396 97.2152 235.846 96.7493 236.401 96.7493C236.956 96.7493 237.406 97.2152 237.406 97.79Z" fill="#455A64"/>
<path d="M237.406 103.347C237.406 103.922 236.956 104.388 236.401 104.388C235.846 104.388 235.396 103.922 235.396 103.347C235.396 102.773 235.846 102.307 236.401 102.307C236.956 102.307 237.406 102.773 237.406 103.347Z" fill="#455A64"/>
<path d="M237.406 108.905C237.406 109.48 236.956 109.946 236.401 109.946C235.846 109.946 235.396 109.48 235.396 108.905C235.396 108.33 235.846 107.865 236.401 107.865C236.956 107.865 237.406 108.33 237.406 108.905Z" fill="#455A64"/>
<path d="M237.406 114.463C237.406 115.037 236.956 115.503 236.401 115.503C235.846 115.503 235.396 115.037 235.396 114.463C235.396 113.888 235.846 113.422 236.401 113.422C236.956 113.422 237.406 113.888 237.406 114.463Z" fill="#455A64"/>
<path d="M237.406 120.02C237.406 120.595 236.956 121.061 236.401 121.061C235.846 121.061 235.396 120.595 235.396 120.02C235.396 119.445 235.846 118.979 236.401 118.979C236.956 118.979 237.406 119.445 237.406 120.02Z" fill="#455A64"/>
<path d="M237.406 125.577C237.406 126.152 236.956 126.618 236.401 126.618C235.846 126.618 235.396 126.152 235.396 125.577C235.396 125.003 235.846 124.537 236.401 124.537C236.956 124.537 237.406 125.003 237.406 125.577Z" fill="#455A64"/>
<path d="M237.406 131.135C237.406 131.71 236.956 132.176 236.401 132.176C235.846 132.176 235.396 131.71 235.396 131.135C235.396 130.561 235.846 130.095 236.401 130.095C236.956 130.095 237.406 130.561 237.406 131.135Z" fill="#455A64"/>
<path d="M237.406 136.693C237.406 137.267 236.956 137.733 236.401 137.733C235.846 137.733 235.396 137.267 235.396 136.693C235.396 136.118 235.846 135.652 236.401 135.652C236.956 135.652 237.406 136.118 237.406 136.693Z" fill="#455A64"/>
<path d="M237.406 142.25C237.406 142.825 236.956 143.291 236.401 143.291C235.846 143.291 235.396 142.825 235.396 142.25C235.396 141.675 235.846 141.209 236.401 141.209C236.956 141.209 237.406 141.675 237.406 142.25Z" fill="#455A64"/>
<path d="M254.108 149.803H244.672C244.134 149.803 243.698 149.345 243.698 148.779C243.698 148.213 244.134 147.754 244.672 147.754H254.108C254.645 147.754 255.081 148.213 255.081 148.779C255.081 149.345 254.645 149.803 254.108 149.803Z" fill="#FF725E"/>
<path d="M254.747 154.412H248.932C248.381 154.412 247.934 153.965 247.934 153.414V153.361C247.934 152.81 248.381 152.363 248.932 152.363H254.747C255.298 152.363 255.745 152.81 255.745 153.361V153.414C255.745 153.965 255.298 154.412 254.747 154.412Z" fill="#FF725E"/>
<path d="M251.267 163.389H245.404C244.866 163.389 244.431 162.93 244.431 162.364C244.431 161.799 244.866 161.34 245.404 161.34H251.267C251.805 161.34 252.241 161.798 252.241 162.364C252.241 162.93 251.805 163.389 251.267 163.389Z" fill="#FF725E"/>
<path d="M251.267 175.049H245.404C244.866 175.049 244.431 174.591 244.431 174.025C244.431 173.459 244.866 173 245.404 173H251.267C251.805 173 252.241 173.459 252.241 174.025C252.241 174.591 251.805 175.049 251.267 175.049Z" fill="#FF725E"/>
<path d="M265.681 175.049H255.401C254.864 175.049 254.428 174.591 254.428 174.025C254.428 173.459 254.864 173 255.401 173H265.681C266.218 173 266.654 173.459 266.654 174.025C266.655 174.591 266.218 175.049 265.681 175.049Z" fill="#455A64"/>
<path d="M278.718 163.612H268.438C267.901 163.612 267.465 163.153 267.465 162.587C267.465 162.022 267.901 161.563 268.438 161.563H278.718C279.255 161.563 279.691 162.021 279.691 162.587C279.691 163.153 279.255 163.612 278.718 163.612Z" fill="#455A64"/>
<path d="M266.367 167.968H256.088C255.55 167.968 255.114 167.51 255.114 166.944C255.114 166.378 255.55 165.919 256.088 165.919H266.367C266.905 165.919 267.341 166.378 267.341 166.944C267.341 167.509 266.905 167.968 266.367 167.968Z" fill="#455A64"/>
<path d="M272.876 175.049H271.395C270.857 175.049 270.421 174.591 270.421 174.025C270.421 173.459 270.857 173 271.395 173H272.876C273.413 173 273.849 173.459 273.849 174.025C273.849 174.591 273.413 175.049 272.876 175.049Z" fill="#E0E0E0"/>
<path d="M265.065 163.389H256.378C255.84 163.389 255.405 162.93 255.405 162.364C255.405 161.799 255.84 161.34 256.378 161.34H265.065C265.602 161.34 266.038 161.798 266.038 162.364C266.039 162.93 265.602 163.389 265.065 163.389Z" fill="#E0E0E0"/>
<path d="M266.581 154.412H259.294C258.743 154.412 258.296 153.965 258.296 153.414V153.361C258.296 152.81 258.743 152.363 259.294 152.363H266.581C267.133 152.363 267.58 152.81 267.58 153.361V153.414C267.58 153.965 267.133 154.412 266.581 154.412Z" fill="#455A64"/>
<path d="M272.931 154.412H271.157C270.606 154.412 270.159 153.965 270.159 153.414V153.361C270.159 152.81 270.606 152.363 271.157 152.363H272.931C273.482 152.363 273.929 152.81 273.929 153.361V153.414C273.929 153.965 273.482 154.412 272.931 154.412Z" fill="#E0E0E0"/>
<path d="M260.499 149.803H258.397C257.859 149.803 257.423 149.345 257.423 148.779C257.423 148.213 257.859 147.754 258.397 147.754H260.499C261.037 147.754 261.473 148.213 261.473 148.779C261.473 149.345 261.037 149.803 260.499 149.803Z" fill="#263238"/>
<path d="M278.313 149.803H264.925C264.387 149.803 263.952 149.345 263.952 148.779C263.952 148.213 264.387 147.754 264.925 147.754H278.313C278.851 147.754 279.287 148.213 279.287 148.779C279.287 149.345 278.851 149.803 278.313 149.803Z" fill="#E0E0E0"/>
<path d="M237.406 147.639C237.406 148.214 236.956 148.68 236.401 148.68C235.846 148.68 235.396 148.214 235.396 147.639C235.396 147.064 235.846 146.598 236.401 146.598C236.956 146.598 237.406 147.064 237.406 147.639Z" fill="#455A64"/>
<path d="M237.406 153.196C237.406 153.771 236.956 154.237 236.401 154.237C235.846 154.237 235.396 153.771 235.396 153.196C235.396 152.621 235.846 152.156 236.401 152.156C236.956 152.156 237.406 152.621 237.406 153.196Z" fill="#455A64"/>
<path d="M237.406 158.754C237.406 159.328 236.956 159.794 236.401 159.794C235.846 159.794 235.396 159.328 235.396 158.754C235.396 158.179 235.846 157.713 236.401 157.713C236.956 157.713 237.406 158.179 237.406 158.754Z" fill="#455A64"/>
<path d="M237.406 164.311C237.406 164.886 236.956 165.352 236.401 165.352C235.846 165.352 235.396 164.886 235.396 164.311C235.396 163.736 235.846 163.27 236.401 163.27C236.956 163.27 237.406 163.736 237.406 164.311Z" fill="#455A64"/>
<path d="M237.406 169.868C237.406 170.443 236.956 170.909 236.401 170.909C235.846 170.909 235.396 170.443 235.396 169.868C235.396 169.294 235.846 168.828 236.401 168.828C236.956 168.828 237.406 169.294 237.406 169.868Z" fill="#455A64"/>
<path d="M237.406 175.426C237.406 176.001 236.956 176.467 236.401 176.467C235.846 176.467 235.396 176.001 235.396 175.426C235.396 174.851 235.846 174.385 236.401 174.385C236.956 174.385 237.406 174.851 237.406 175.426Z" fill="#455A64"/>
<path d="M237.406 181.357C237.406 181.932 236.956 182.398 236.401 182.398C235.846 182.398 235.396 181.932 235.396 181.357C235.396 180.783 235.846 180.317 236.401 180.317C236.956 180.317 237.406 180.783 237.406 181.357Z" fill="#455A64"/>
<path d="M273.952 54.2192L263.69 54.2131C262.314 54.2127 261.198 55.3687 261.198 56.7957L261.197 58.6423C261.197 60.0693 260.081 61.2258 258.705 61.2248L238.702 61.2133C237.326 61.2128 236.21 60.0549 236.211 58.6279L236.211 56.7813C236.211 55.3544 235.095 54.1965 233.719 54.196L230.11 54.1937L221.128 54.1886C216.668 54.1863 213.05 57.772 213.049 62.1965L213.046 73.6156H282.02L282.023 62.2303C282.023 57.8081 278.41 54.2219 273.952 54.2192Z" fill="#F5F5F5"/>
<path d="M217.643 70.3871C218.346 70.3871 218.915 69.8172 218.915 69.1143C218.915 68.4114 218.346 67.8416 217.643 67.8416C216.94 67.8416 216.37 68.4114 216.37 69.1143C216.37 69.8172 216.94 70.3871 217.643 70.3871Z" fill="#E0E0E0"/>
<path d="M222.844 69.1143C222.844 69.8173 222.274 70.3875 221.572 70.3875C220.869 70.3875 220.298 69.8178 220.298 69.1143C220.298 68.4107 220.869 67.8411 221.572 67.8411C222.274 67.8411 222.844 68.4112 222.844 69.1143Z" fill="#E0E0E0"/>
<path d="M226.773 69.1143C226.773 69.8173 226.203 70.3875 225.5 70.3875C224.797 70.3875 224.226 69.8178 224.226 69.1143C224.226 68.4107 224.797 67.8411 225.5 67.8411C226.203 67.8411 226.773 68.4112 226.773 69.1143Z" fill="#E0E0E0"/>
<path d="M247.97 64.6879C248.227 64.5327 248.5 64.4151 248.782 64.335L248.95 63.5309L250.308 63.5073L250.503 64.3049C250.788 64.3748 251.066 64.4832 251.328 64.6291L252.014 64.1789L252.992 65.1228L252.566 65.8245C252.721 66.0815 252.839 66.3548 252.919 66.6369L253.723 66.8041L253.747 68.1625L252.949 68.3579C252.879 68.6423 252.771 68.9197 252.625 69.1819L253.075 69.8683L252.131 70.8455L251.43 70.4199C251.173 70.5751 250.899 70.6927 250.617 70.7728L250.45 71.5769L249.092 71.6005L248.896 70.8029C248.611 70.733 248.335 70.6246 248.072 70.4787L247.386 70.9289L246.409 69.985L246.834 69.2833C246.679 69.0263 246.562 68.753 246.481 68.4709L245.677 68.3038L245.653 66.9453L246.451 66.7499C246.521 66.4655 246.629 66.1881 246.775 65.9259L246.325 65.2395L247.269 64.2623L247.97 64.6879ZM248.694 66.4975C248.135 67.0764 248.151 67.999 248.73 68.558C249.309 69.117 250.232 69.1008 250.791 68.5219C251.35 67.943 251.334 67.0203 250.755 66.4609C250.176 65.9018 249.253 65.918 248.694 66.4975Z" fill="#E0E0E0"/>
<path d="M233.797 33.2986L245.379 49.0514L257.849 33.2777L233.797 33.2986Z" fill="#314389"/>
<path d="M251.765 35.9659H239.88V18.9802C239.88 15.4403 238.615 14.2509 238.2 13.8605C236.417 12.1839 233.035 11.7536 230.464 11.9138C230.315 11.9231 230.119 11.9328 229.879 11.9324C229.87 11.9324 229.862 11.9324 229.853 11.9324C225.665 11.9324 222.783 13.0523 221.286 15.2615C220.087 17.0312 220.018 19.0117 220.018 19.0321L220.018 18.9339L208.133 19.0256C208.127 18.2581 208.23 11.3724 213.606 5.97203C217.511 2.04957 222.96 0.0556923 229.803 0.0464293C232.988 -0.142538 240.82 0.00937726 246.342 5.20134C248.816 7.5273 251.765 11.8064 251.765 18.9793L251.765 35.9659Z" fill="#314389"/>
</svg>
