<svg width="35" height="35" viewBox="0 0 35 35" fill="none" xmlns="http://www.w3.org/2000/svg">
<path d="M35 2.1875V10.9375L17.5 19.6875L0 10.9375V2.1875C0 1.60734 0.184374 1.05094 0.512563 0.640704C0.840752 0.230469 1.28587 0 1.75 0H33.25C33.7141 0 34.1592 0.230469 34.4874 0.640704C34.8156 1.05094 35 1.60734 35 2.1875ZM0 15.6494V32.8125C0 33.3927 0.184374 33.9491 0.512563 34.3593C0.840752 34.7695 1.28587 35 1.75 35H33.25C33.7141 35 34.1592 34.7695 34.4874 34.3593C34.8156 33.9491 35 33.3927 35 32.8125V15.6494L17.5 24.3994L0 15.6494Z" fill="white"/>
</svg>
