<svg width="35" height="35" viewBox="0 0 35 35" fill="none" xmlns="http://www.w3.org/2000/svg">
<path d="M17.5018 0.00119668C7.83587 0.00119668 0 8.03535 0 17.9458C0 25.8256 4.95432 32.5207 11.8437 34.9319L11.9674 34.969C12.8427 35.1378 13.1637 34.5837 13.1637 34.1063C13.1637 33.6803 13.1497 32.5507 13.1415 31.0561C8.27353 32.139 7.24649 28.6485 7.24649 28.6485C6.91037 27.5416 6.22178 26.6321 5.31728 26.035L5.29861 26.0243C3.71369 24.9114 5.42115 24.9341 5.42115 24.9341C6.57308 25.1005 7.53826 25.7933 8.09263 26.765L8.10197 26.7829C8.74854 27.9736 9.96932 28.7657 11.371 28.7657C12.0432 28.7657 12.6735 28.5838 13.2173 28.2643L13.1987 28.2739C13.2827 27.3274 13.69 26.4921 14.3062 25.8747L14.3074 25.8735C10.421 25.4247 6.33499 23.8811 6.33499 17.0065C6.33499 16.9742 6.33382 16.9371 6.33382 16.9C6.33382 15.0799 7.01891 13.4238 8.13932 12.1877L8.13582 12.1924C7.8989 11.5439 7.76118 10.7948 7.76118 10.0134C7.76118 9.0836 7.95492 8.19929 8.30388 7.40234L8.28754 7.44302C8.28754 7.44302 9.75341 6.96198 13.1006 9.28224C14.4125 8.89812 15.9192 8.67675 17.4761 8.67675C19.033 8.67675 20.5397 8.89812 21.9682 9.31096L21.8515 9.28224C25.1766 6.96198 26.6424 7.44302 26.6424 7.44302C26.9751 8.21126 27.1688 9.10634 27.1688 10.0481C27.1688 10.8163 27.0404 11.5534 26.8035 12.2379L26.8175 12.1924C27.9297 13.4274 28.6125 15.0835 28.6125 16.9036C28.6125 16.9407 28.6125 16.9766 28.6113 17.0125V17.0065C28.6113 23.9002 24.5207 25.4176 20.6261 25.8591C21.3637 26.6333 21.8188 27.6924 21.8188 28.8615C21.8188 28.9727 21.8142 29.084 21.806 29.1941L21.8072 29.1798C21.8072 31.5814 21.785 33.5104 21.785 34.0931C21.785 34.5646 22.0908 35.1246 22.9883 34.9451C30.0235 32.5172 35 25.816 35 17.9219C35 8.02339 27.1735 0 17.5204 0C17.5134 0 17.5053 0 17.4982 0H17.4994L17.5018 0.00119668Z" fill="white"/>
</svg>
