<svg width="35" height="35" viewBox="0 0 35 35" fill="none" xmlns="http://www.w3.org/2000/svg">
<rect width="35" height="35" rx="5" fill="white"/>
<path d="M14.6382 7.75279L15.5846 9.44873C16.4388 10.9792 16.0959 12.987 14.7506 14.3322C14.7506 14.3322 13.119 15.9641 16.0774 18.9226C19.0349 21.8801 20.6678 20.2494 20.6678 20.2494C22.0131 18.9041 24.0208 18.5613 25.5513 19.4154L27.2472 20.3619C29.5584 21.6516 29.8312 24.8926 27.7999 26.9241C26.5793 28.1447 25.0839 29.0945 23.4309 29.1571C20.6482 29.2627 15.9225 28.5584 11.1821 23.818C6.44165 19.0775 5.73739 14.3518 5.84288 11.5691C5.90555 9.91612 6.85533 8.42079 8.07597 7.20017C10.1074 5.16878 13.3484 5.44172 14.6382 7.75279Z" fill="#1C274C"/>
<path d="M19.3368 2.74138C19.4333 2.14508 19.997 1.74059 20.5933 1.83711C20.6302 1.84419 20.749 1.86638 20.8111 1.88024C20.9357 1.90796 21.1092 1.95062 21.3256 2.01366C21.7585 2.13972 22.3631 2.3474 23.0888 2.68009C24.5417 3.3462 26.4752 4.5114 28.4815 6.51778C30.4879 8.52415 31.6531 10.4576 32.3191 11.9105C32.6519 12.6362 32.8596 13.2409 32.9856 13.6737C33.0486 13.8901 33.0913 14.0637 33.119 14.1881C33.1329 14.2503 33.1431 14.3003 33.1501 14.3372L33.1586 14.3827C33.255 14.9789 32.8542 15.5661 32.2579 15.6626C31.6633 15.7589 31.1032 15.3562 31.0043 14.7628C31.0013 14.7468 30.9928 14.704 30.9839 14.6637C30.9658 14.5829 30.9348 14.4548 30.8855 14.2854C30.7867 13.9466 30.6154 13.443 30.3307 12.8222C29.7623 11.5821 28.74 9.8698 26.9347 8.06458C25.1296 6.25936 23.4172 5.23709 22.1772 4.66858C21.5564 4.38398 21.0528 4.21258 20.7139 4.11388C20.5446 4.06454 20.3316 4.01567 20.2509 3.99769C19.6573 3.89877 19.2405 3.33597 19.3368 2.74138Z" fill="#1C274C"/>
<path fill-rule="evenodd" clip-rule="evenodd" d="M19.6666 7.77184C19.8326 7.19101 20.438 6.85469 21.0188 7.02063L20.7184 8.07231C21.0188 7.02063 21.0188 7.02063 21.0188 7.02063L21.021 7.02125L21.0232 7.02189L21.028 7.0233L21.0394 7.02669L21.0682 7.03567C21.0901 7.0427 21.1177 7.05186 21.1504 7.06348C21.2158 7.08673 21.3025 7.11977 21.4086 7.16527C21.6211 7.25633 21.9113 7.39694 22.268 7.60798C22.9817 8.03043 23.9562 8.73215 25.101 9.8769C26.2458 11.0217 26.9474 11.9961 27.3699 12.7099C27.5809 13.0665 27.7215 13.3568 27.8126 13.5692C27.8581 13.6754 27.8912 13.762 27.9144 13.8275C27.9261 13.8602 27.9351 13.8877 27.9422 13.9097L27.9511 13.9385L27.9545 13.9498L27.956 13.9547L27.9565 13.9569C27.9565 13.9569 27.9573 13.959 26.9055 14.2595L27.9573 13.959C28.1232 14.5398 27.7868 15.1452 27.2061 15.3111C26.6302 15.4756 26.0301 15.1465 25.8581 14.5747L25.8527 14.559C25.845 14.5371 25.829 14.4939 25.802 14.4309C25.748 14.305 25.6502 14.0991 25.4874 13.824C25.1622 13.2746 24.575 12.4445 23.5541 11.4237C22.5334 10.4029 21.7032 9.81566 21.1539 9.4905C20.8788 9.32772 20.6729 9.22986 20.5469 9.1759C20.4839 9.14891 20.4407 9.13281 20.4189 9.12504L20.4031 9.11966C19.8314 8.94775 19.5021 8.34772 19.6666 7.77184Z" fill="#1C274C"/>
</svg>
